<svg viewBox="0 0 104 104" fill="none" xmlns="http://www.w3.org/2000/svg">
<path d="M47.1277 2.21788C49.7029 -0.739292 54.2971 -0.739292 56.8723 2.21788L57.6877 3.15428C59.6191 5.37218 62.8046 6.00582 65.4377 4.69585L66.5494 4.14278C70.0602 2.39617 74.3047 4.15433 75.5522 7.87185L75.9472 9.04903C76.8828 11.8372 79.5834 13.6417 82.5173 13.4391L83.7561 13.3535C87.668 13.0834 90.9166 16.332 90.6465 20.2439L90.5609 21.4827C90.3583 24.4166 92.1628 27.1172 94.951 28.0528L96.1282 28.4478C99.8457 29.6953 101.604 33.9398 99.8572 37.4506L99.3041 38.5623C97.9942 41.1954 98.6278 44.3809 100.846 46.3123L101.782 47.1277C104.739 49.7029 104.739 54.2971 101.782 56.8723L100.846 57.6877C98.6278 59.6191 97.9942 62.8046 99.3041 65.4377L99.8572 66.5494C101.604 70.0602 99.8457 74.3047 96.1282 75.5522L94.951 75.9472C92.1628 76.8828 90.3583 79.5834 90.5609 82.5173L90.6465 83.7561C90.9166 87.668 87.668 90.9166 83.7561 90.6465L82.5173 90.5609C79.5834 90.3583 76.8828 92.1628 75.9472 94.951L75.5522 96.1282C74.3047 99.8457 70.0602 101.604 66.5494 99.8572L65.4377 99.3041C62.8046 97.9942 59.6191 98.6278 57.6877 100.846L56.8723 101.782C54.2971 104.739 49.7029 104.739 47.1277 101.782L46.3123 100.846C44.3809 98.6278 41.1954 97.9942 38.5623 99.3041L37.4506 99.8572C33.9398 101.604 29.6953 99.8457 28.4478 96.1282L28.0528 94.951C27.1172 92.1628 24.4166 90.3583 21.4827 90.5609L20.2439 90.6465C16.332 90.9166 13.0834 87.668 13.3535 83.7561L13.4391 82.5173C13.6417 79.5834 11.8372 76.8828 9.04903 75.9472L7.87185 75.5522C4.15433 74.3047 2.39617 70.0602 4.14278 66.5494L4.69585 65.4377C6.00582 62.8046 5.37218 59.6191 3.15428 57.6877L2.21788 56.8723C-0.739292 54.2971 -0.739292 49.7029 2.21788 47.1277L3.15428 46.3123C5.37218 44.3809 6.00582 41.1954 4.69585 38.5623L4.14278 37.4506C2.39617 33.9398 4.15433 29.6953 7.87185 28.4478L9.04903 28.0528C11.8372 27.1172 13.6417 24.4166 13.4391 21.4827L13.3535 20.2439C13.0834 16.332 16.332 13.0834 20.2439 13.3535L21.4827 13.4391C24.4166 13.6417 27.1172 11.8372 28.0528 9.04903L28.4478 7.87185C29.6953 4.15433 33.9398 2.39617 37.4506 4.14278L38.5623 4.69585C41.1954 6.00582 44.3809 5.37218 46.3123 3.15428L47.1277 2.21788Z" fill="#EC95B1"/>
<path fill-rule="evenodd" clip-rule="evenodd" d="M56.9614 8.06509C54.3391 5.05382 49.6608 5.05382 47.0386 8.06509C45.2273 10.1451 42.2399 10.7393 39.7706 9.51079C36.1956 7.73222 31.8734 9.52255 30.6031 13.3081C29.7257 15.9228 27.1931 17.6151 24.4416 17.4251C20.4581 17.15 17.15 20.4581 17.4251 24.4416C17.6151 27.1931 15.9228 29.7257 13.3081 30.6031C9.52255 31.8734 7.73222 36.1956 9.51079 39.7706C10.7393 42.2399 10.1451 45.2273 8.06509 47.0386C5.05382 49.6608 5.05382 54.3391 8.06509 56.9614C10.1451 58.7726 10.7393 61.7601 9.51079 64.2294C7.73222 67.8044 9.52255 72.1266 13.3081 73.3969C15.9228 74.2743 17.6151 76.8069 17.4251 79.5584C17.15 83.5419 20.4581 86.85 24.4416 86.5749C27.1931 86.3849 29.7257 88.0771 30.6031 90.6919C31.8734 94.4774 36.1956 96.2677 39.7706 94.4892C42.2399 93.2607 45.2273 93.8549 47.0386 95.9349C49.6608 98.9461 54.3391 98.9461 56.9614 95.9349C58.7726 93.8549 61.7601 93.2607 64.2294 94.4892C67.8044 96.2677 72.1266 94.4774 73.3969 90.6919C74.2743 88.0771 76.8069 86.3849 79.5584 86.5749C83.5419 86.85 86.85 83.5419 86.5749 79.5584C86.3849 76.8069 88.0771 74.2743 90.6919 73.3969C94.4774 72.1266 96.2677 67.8044 94.4892 64.2294C93.2607 61.7601 93.8549 58.7726 95.9349 56.9614C98.9461 54.3391 98.9461 49.6608 95.9349 47.0386C93.8549 45.2273 93.2607 42.2399 94.4892 39.7706C96.2677 36.1956 94.4774 31.8734 90.6919 30.6031C88.0771 29.7257 86.3849 27.1931 86.5749 24.4416C86.85 20.4581 83.5419 17.15 79.5584 17.4251C76.8069 17.6151 74.2743 15.9228 73.3969 13.3081C72.1266 9.52255 67.8044 7.73222 64.2294 9.51079C61.7601 10.7393 58.7726 10.1451 56.9614 8.06509ZM48.3982 9.24906C50.3018 7.06301 53.6981 7.06301 55.6017 9.24906C57.9519 11.9479 61.8283 12.719 65.0324 11.1249C67.6277 9.83378 70.7655 11.1335 71.6876 13.8816C72.8261 17.2744 76.1124 19.4702 79.6826 19.2237C82.5744 19.024 84.976 21.4255 84.7763 24.3174C84.5297 27.8876 86.7255 31.1738 90.1183 32.3123C92.8665 33.2345 94.1662 36.3722 92.875 38.9675C91.281 42.1716 92.052 46.048 94.7509 48.3982C96.9369 50.3018 96.9369 53.6981 94.7509 55.6017C92.052 57.9519 91.281 61.8283 92.875 65.0324C94.1662 67.6277 92.8665 70.7655 90.1183 71.6876C86.7255 72.8261 84.5297 76.1124 84.7763 79.6826C84.976 82.5744 82.5744 84.976 79.6826 84.7763C76.1124 84.5297 72.8261 86.7255 71.6876 90.1183C70.7655 92.8665 67.6277 94.1662 65.0324 92.875C61.8283 91.281 57.9519 92.052 55.6017 94.7509C53.6981 96.9369 50.3018 96.9369 48.3982 94.7509C46.048 92.052 42.1716 91.281 38.9675 92.875C36.3722 94.1662 33.2345 92.8665 32.3123 90.1183C31.1738 86.7255 27.8876 84.5297 24.3174 84.7763C21.4255 84.976 19.024 82.5744 19.2237 79.6826C19.4702 76.1124 17.2744 72.8261 13.8816 71.6876C11.1335 70.7655 9.83378 67.6277 11.1249 65.0324C12.719 61.8283 11.9479 57.9519 9.24906 55.6017C7.06301 53.6981 7.06301 50.3018 9.24906 48.3982C11.9479 46.048 12.719 42.1716 11.1249 38.9675C9.83378 36.3722 11.1335 33.2345 13.8816 32.3123C17.2744 31.1738 19.4702 27.8876 19.2237 24.3174C19.024 21.4255 21.4255 19.024 24.3174 19.2237C27.8876 19.4702 31.1738 17.2744 32.3123 13.8816C33.2345 11.1335 36.3722 9.83378 38.9675 11.1249C42.1716 12.719 46.048 11.9479 48.3982 9.24906Z" fill="#1B1F21"/>
<path d="M59.8483 47.0023L57.7075 44.8615L52.3552 50.2138L47.0029 44.8615L44.8621 47.0023L50.2144 52.3546L44.8621 57.7069L47.0029 59.8477L52.3552 54.4954L57.7075 59.8477L59.8483 57.7069L54.496 52.3546L59.8483 47.0023Z" fill="#1B1F21"/>
<path d="M64.8438 52.7708C64.8438 53.4606 64.2847 54.0197 63.5949 54.0197C62.9052 54.0197 62.3461 53.4606 62.3461 52.7708C62.3461 52.0811 62.9052 51.522 63.5949 51.522C64.2847 51.522 64.8438 52.0811 64.8438 52.7708Z" fill="#1B1F21"/>
<path d="M42.3644 52.7708C42.3644 53.4606 41.8053 54.0197 41.1155 54.0197C40.4258 54.0197 39.8667 53.4606 39.8667 52.7708C39.8667 52.0811 40.4258 51.522 41.1155 51.522C41.8053 51.522 42.3644 52.0811 42.3644 52.7708Z" fill="#1B1F21"/>
<path d="M54.0205 41.1155C54.0205 41.8053 53.4614 42.3644 52.7716 42.3644C52.0819 42.3644 51.5228 41.8053 51.5228 41.1155C51.5228 40.4258 52.0819 39.8667 52.7716 39.8667C53.4614 39.8667 54.0205 40.4258 54.0205 41.1155Z" fill="#1B1F21"/>
<path d="M54.0205 63.5942C54.0205 64.2839 53.4614 64.843 52.7716 64.843C52.0819 64.843 51.5228 64.2839 51.5228 63.5942C51.5228 62.9044 52.0819 62.3453 52.7716 62.3453C53.4614 62.3453 54.0205 62.9044 54.0205 63.5942Z" fill="#1B1F21"/>
<path d="M78.78 52.5032L78.3285 55.3493C77.9105 57.9845 79.4993 60.0397 82.0319 60.4443C84.5295 60.8432 86.6639 59.3828 87.0819 56.7475L87.5333 53.9014L78.78 52.5032ZM85.5997 56.5107C85.3396 58.1505 84.0132 59.0435 82.2859 58.7675C80.5469 58.4897 79.5507 57.2258 79.8108 55.586L80.0058 54.3562L85.7947 55.2809L85.5997 56.5107Z" fill="#1B1F21"/>
<path d="M76.9333 61.0105L76.3149 62.5249L84.5164 65.8979L85.1349 64.3834L76.9333 61.0105Z" fill="#1B1F21"/>
<path d="M77.8697 72.8532C79.3247 73.3574 80.6492 72.8616 81.6204 71.4018C82.6309 69.8828 82.5436 68.0703 81.2855 67.2274C79.6637 66.1408 78.4699 67.2946 77.4466 68.2774C76.6988 69.017 76.0592 69.658 75.3613 69.1905C74.6438 68.7098 74.7394 67.904 75.2512 67.1346C75.8156 66.2863 76.5828 65.9447 77.6347 66.35L78.1766 64.7024C76.5872 64.1652 75.1611 64.6643 74.0587 66.3213C72.9628 67.9686 73.083 69.689 74.4787 70.6241C76.0513 71.6777 77.2943 70.5996 78.3012 69.62C79.0752 68.8838 79.7279 68.223 80.4061 68.6774C80.9762 69.0593 80.9889 69.7666 80.4377 70.5951C79.9324 71.3546 79.1882 71.5548 78.4214 71.2549L77.8697 72.8532Z" fill="#1B1F21"/>
<path d="M71.7989 69.599L67.2887 73.5395L68.251 74.6487L71.5311 71.7829L73.1219 73.6165L70.9203 75.5401L71.8826 76.6492L74.0842 74.7257L75.4267 76.2732L72.2357 79.0611L73.1979 80.1703L77.619 76.3076L71.7989 69.599Z" fill="#1B1F21"/>
<path d="M59.9178 77.0002L61.9976 76.0897L67.9181 80.4851L67.9614 80.4661C67.8755 80.2881 67.7879 80.1064 67.6988 79.9212C67.6128 79.7432 67.5252 79.5615 67.4361 79.3763C67.3429 79.2014 67.2518 79.0214 67.1626 78.8361C67.0767 78.6581 66.9891 78.4764 66.9 78.2912L65.3123 74.6387L66.7746 73.9985L70.1485 81.7601L68.0795 82.6658L62.1935 78.3201L62.161 78.3343C62.247 78.5123 62.3314 78.6867 62.4142 78.8575C62.5002 79.0355 62.5846 79.2099 62.6674 79.3807C62.7462 79.5618 62.827 79.7378 62.9098 79.9086C62.9958 80.0866 63.0817 80.2646 63.1677 80.4426L64.7649 84.1169L63.2917 84.7618L59.9178 77.0002ZM69.1816 82.9468C69.2828 83.2389 69.3378 83.5038 69.3465 83.7415C69.3512 83.9896 69.3169 84.2073 69.2437 84.3947C69.1735 84.5893 69.0732 84.7539 68.9427 84.8887C68.8049 85.0266 68.6422 85.1367 68.4544 85.2189C68.31 85.2821 68.1566 85.3148 67.9942 85.3169C67.8277 85.3294 67.6621 85.3242 67.4975 85.3014C67.3288 85.289 67.1668 85.2823 67.0116 85.2812C66.8596 85.2874 66.7186 85.3189 66.5886 85.3758C66.4803 85.4232 66.396 85.5162 66.3359 85.6547C66.2757 85.7931 66.2649 85.9661 66.3035 86.1734L65.5128 86.5196C65.3135 85.9426 65.2928 85.46 65.4507 85.0717C65.6086 84.6834 65.8716 84.4087 66.2399 84.2475C66.3844 84.1842 66.5362 84.148 66.6955 84.1386C66.8579 84.1365 67.0234 84.1417 67.1922 84.1541C67.364 84.1738 67.526 84.1805 67.678 84.1743C67.8332 84.1754 67.9758 84.1475 68.1058 84.0906C68.2141 84.0431 68.2983 83.9502 68.3585 83.8117C68.4186 83.6733 68.4294 83.5003 68.3908 83.2929L69.1816 82.9468Z" fill="#1B1F21"/>
<path d="M59.3636 81.8395C59.2119 79.211 57.2481 77.3888 54.6289 77.5411C52.0097 77.6934 50.2688 79.731 50.4205 82.3595C50.573 84.9998 52.536 86.8102 55.1553 86.6579C57.7745 86.5056 59.5161 84.4798 59.3636 81.8395ZM52.1077 82.2614C52.001 80.4144 53.0403 79.1422 54.7157 79.0448C56.3911 78.9474 57.5698 80.0906 57.6765 81.9376C57.7831 83.7846 56.7438 85.0568 55.0684 85.1542C53.3931 85.2516 52.2143 84.1084 52.1077 82.2614Z" fill="#1B1F21"/>
<path d="M45.151 81.0688C45.0133 81.4894 44.8352 81.8052 44.6168 82.0161C44.3909 82.2246 44.1398 82.3456 43.8634 82.3793C43.5845 82.4205 43.2991 82.3929 43.0072 82.2966C42.7153 82.2003 42.473 82.0538 42.2804 81.8571C42.0778 81.6654 41.9472 81.4184 41.8886 81.1162C41.8301 80.8139 41.8697 80.4524 42.0075 80.0318C42.1428 79.6187 42.3234 79.3079 42.5492 79.0994C42.7751 78.8909 43.0275 78.7661 43.3063 78.725C43.5777 78.6813 43.8594 78.7076 44.1513 78.8039C44.4432 78.9002 44.6892 79.048 44.8894 79.2472C45.0895 79.4463 45.2188 79.6971 45.2774 79.9994C45.3285 80.2992 45.2864 80.6557 45.151 81.0688Z" fill="#1B1F21"/>
<path d="M39.8643 74.4158L37.6116 72.6283C35.5257 70.9733 32.9624 71.3585 31.3718 73.3773C29.8033 75.3682 30.0284 77.9507 32.1143 79.6057L34.367 81.3932L39.8643 74.4158ZM33.0451 78.4242C31.7473 77.3944 31.62 75.7967 32.7049 74.4198C33.797 73.0336 35.3829 72.7801 36.6807 73.8098L37.6541 74.5822L34.0185 79.1966L33.0451 78.4242Z" fill="#1B1F21"/>
<path d="M33.3884 68.6512L32.3722 67.3711L25.4394 72.9132L26.4556 74.1934L33.3884 68.6512Z" fill="#1B1F21"/>
<path d="M22.6341 63.734C21.4877 64.7649 21.2756 66.1675 22.0748 67.7289C22.9064 69.3535 24.5272 70.158 25.8727 69.4643C27.6073 68.5702 27.1829 66.9624 26.8244 65.5872C26.5439 64.5719 26.2966 63.6994 27.0429 63.3146C27.8103 62.9191 28.4656 63.3946 28.8868 64.2175C29.3512 65.1247 29.2757 65.9636 28.4114 66.6891L29.5828 67.9652C30.8232 66.8325 31.0819 65.3392 30.1747 63.5669C29.2729 61.8051 27.7164 61.0742 26.2236 61.8437C24.5416 62.7107 24.8762 64.3248 25.2398 65.6841C25.5047 66.7208 25.7628 67.6144 25.0375 67.9883C24.4278 68.3026 23.8058 67.9699 23.3522 67.0837C22.9364 66.2714 23.1238 65.5215 23.7577 64.9948L22.6341 63.734Z" fill="#1B1F21"/>
<path d="M28.4135 59.9941L27.2035 54.1172L25.7684 54.4147L26.6484 58.6889L24.2758 59.1808L23.6851 56.312L22.25 56.6096L22.8407 59.4784L20.8384 59.8935L19.9823 55.7356L18.5472 56.0331L19.7333 61.7939L28.4135 59.9941Z" fill="#1B1F21"/>
<path d="M27.7958 45.9445L27.5687 48.2102L20.8511 51.2392L20.8464 51.2864C21.0432 51.2983 21.2438 51.3106 21.4484 51.3233C21.6452 51.3352 21.8459 51.3475 22.0505 51.3602C22.2481 51.3643 22.4491 51.3726 22.6538 51.3853C22.8505 51.3973 23.0512 51.4096 23.2558 51.4223L27.2068 51.8211L27.0471 53.4141L18.6513 52.5667L18.8772 50.3128L25.5348 47.2897L25.5384 47.2543C25.3416 47.2424 25.1488 47.2309 24.9598 47.2198C24.7631 47.2078 24.5702 47.1963 24.3813 47.1852C24.1853 47.1654 23.9928 47.15 23.8039 47.1388C23.6072 47.1269 23.4104 47.115 23.2136 47.1031L19.2392 46.7019L19.4 45.0971L27.7958 45.9445ZM18.0936 51.1396C17.7902 51.0851 17.5331 51.0036 17.3223 50.8949C17.1044 50.7775 16.932 50.6409 16.8051 50.4851C16.6704 50.3284 16.5764 50.16 16.5232 49.9798C16.4708 49.7918 16.4548 49.5955 16.4753 49.3909C16.4911 49.2336 16.5378 49.0834 16.6155 48.9402C16.6862 48.7884 16.7717 48.6461 16.8721 48.5132C16.9655 48.3716 17.0506 48.2332 17.1275 48.0979C17.1966 47.9619 17.2382 47.823 17.2524 47.6814C17.2643 47.5634 17.2247 47.4442 17.1339 47.3238C17.043 47.2034 16.898 47.1093 16.6989 47.0415L16.7853 46.1801C17.3842 46.2882 17.8136 46.5064 18.0737 46.8346C18.3338 47.1628 18.4437 47.5275 18.4035 47.9287C18.3878 48.0861 18.345 48.2367 18.2751 48.3806C18.1974 48.5238 18.1119 48.6661 18.0185 48.8077C17.9173 48.9485 17.8321 49.0869 17.7631 49.2229C17.6862 49.3582 17.6406 49.4966 17.6264 49.6382C17.6146 49.7563 17.6541 49.8755 17.745 49.9959C17.8359 50.1163 17.9808 50.2104 18.1799 50.2782L18.0936 51.1396Z" fill="#1B1F21"/>
<path d="M23.8453 43.0479C26.2009 44.2073 28.7474 43.3868 29.9027 41.0229C31.058 38.659 30.1455 36.136 27.7899 34.9766C25.4238 33.812 22.8878 34.6378 21.7325 37.0016C20.5772 39.3655 21.4791 41.8833 23.8453 43.0479ZM27.0458 36.4993C28.701 37.314 29.2941 38.8476 28.5552 40.3596C27.8162 41.8717 26.2447 42.3399 24.5895 41.5252C22.9342 40.7105 22.3411 39.1769 23.0801 37.6649C23.8191 36.1529 25.3905 35.6846 27.0458 36.4993Z" fill="#1B1F21"/>
<path d="M31.3658 31.1274C31.0666 30.8021 30.8782 30.4924 30.8007 30.1983C30.729 29.8989 30.7457 29.6198 30.8508 29.361C30.9505 29.0965 31.1133 28.8596 31.3391 28.6505C31.5649 28.4413 31.8102 28.3001 32.0752 28.2268C32.3406 28.1423 32.6192 28.1479 32.9109 28.2435C33.2026 28.3392 33.498 28.5497 33.7973 28.875C34.0912 29.1945 34.274 29.504 34.3457 29.8035C34.4174 30.1029 34.4034 30.3849 34.3037 30.6494C34.2097 30.9086 34.0498 31.1428 33.8241 31.352C33.5983 31.5611 33.35 31.705 33.0792 31.7837C32.8085 31.8624 32.5273 31.8539 32.2356 31.7582C31.9497 31.6572 31.6597 31.447 31.3658 31.1274Z" fill="#1B1F21"/>
<path d="M39.7363 29.6787L42.3895 28.5759C44.8462 27.5548 45.7604 25.1209 44.7791 22.7432C43.8113 20.3984 41.4545 19.3369 38.9978 20.358L36.3446 21.4608L39.7363 29.6787ZM39.5721 21.7496C41.1007 21.1143 42.5529 21.7815 43.2222 23.4032C43.896 25.0358 43.3438 26.549 41.8152 27.1844L40.6687 27.6609L38.4256 22.2261L39.5721 21.7496Z" fill="#1B1F21"/>
<path d="M47.936 26.7949L49.5456 26.5314L48.1187 17.7525L46.5091 18.016L47.936 26.7949Z" fill="#1B1F21"/>
<path d="M57.517 19.7869C57.1847 18.2786 56.0711 17.4046 54.3233 17.3369C52.5047 17.2665 51.0107 18.2886 50.9523 19.8055C50.8771 21.761 52.4813 22.1792 53.8511 22.5408C54.8703 22.794 55.7492 23.0061 55.7168 23.8475C55.6835 24.7126 54.949 25.0521 54.0279 25.0164C53.0123 24.977 52.321 24.4992 52.1155 23.3875L50.4326 23.7851C50.807 25.4257 51.9765 26.3849 53.9604 26.4617C55.9326 26.5382 57.3312 25.536 57.396 23.8532C57.4689 21.957 55.9034 21.4572 54.5449 21.1079C53.5148 20.8306 52.6123 20.6176 52.6438 19.7999C52.6702 19.1125 53.2644 18.732 54.2564 18.7704C55.1657 18.8057 55.7247 19.3377 55.8709 20.1504L57.517 19.7869Z" fill="#1B1F21"/>
<path d="M57.9449 26.6532L63.6466 28.4625L64.0884 27.0604L59.9418 25.7445L60.6722 23.4264L63.4554 24.3096L63.8973 22.9074L61.114 22.0242L61.7305 20.0679L65.7645 21.348L66.2063 19.9458L60.6173 18.1723L57.9449 26.6532Z" fill="#1B1F21"/>
<path d="M70.3733 32.9064L68.5143 31.6008L69.1622 24.2389L69.1235 24.2117C69.017 24.3782 68.9083 24.5479 68.7973 24.7209C68.6908 24.8874 68.582 25.0571 68.471 25.23C68.371 25.401 68.2655 25.573 68.1545 25.746C68.048 25.9125 67.9393 26.0822 67.8283 26.2551L65.5515 29.5199L64.2443 28.6019L69.0825 21.6642L70.9319 22.963L70.3082 30.2695L70.3372 30.2899C70.4437 30.1234 70.5479 29.9602 70.6499 29.8002C70.7564 29.6337 70.8606 29.4705 70.9626 29.3105C71.0755 29.1485 71.183 28.9876 71.2849 28.8276C71.3914 28.6611 71.4979 28.4946 71.6044 28.3281L73.8947 25.0439L75.2115 25.9687L70.3733 32.9064ZM70.5958 21.8729C70.7914 21.6339 70.9879 21.4486 71.1854 21.3171C71.3938 21.1837 71.5968 21.0995 71.7943 21.0645C71.9964 21.023 72.1887 21.023 72.3714 21.0644C72.5605 21.1104 72.739 21.1923 72.9068 21.3101C73.0359 21.4008 73.1437 21.5151 73.2302 21.6531C73.3277 21.7891 73.4097 21.9335 73.4762 22.0864C73.5536 22.2373 73.6324 22.3795 73.7124 22.5129C73.797 22.6398 73.8974 22.7441 74.0136 22.8257C74.1104 22.8937 74.2334 22.9173 74.3825 22.8966C74.5316 22.8759 74.6842 22.7949 74.8404 22.6537L75.5472 23.1501C75.1606 23.6217 74.7611 23.8912 74.3487 23.9586C73.9363 24.026 73.5654 23.9441 73.2362 23.7129C73.1071 23.6222 72.9971 23.5111 72.906 23.3796C72.8195 23.2417 72.7375 23.0973 72.6601 22.9463C72.5871 22.7889 72.5084 22.6468 72.4238 22.5198C72.3438 22.3864 72.2456 22.2789 72.1294 22.1973C72.0326 22.1293 71.9097 22.1057 71.7606 22.1264C71.6115 22.1472 71.4588 22.2281 71.3026 22.3694L70.5958 21.8729Z" fill="#1B1F21"/>
<path d="M74.9022 30.927C72.7472 32.4287 72.2232 35.0607 73.7196 37.2233C75.2161 39.3859 77.8566 39.8127 80.0116 38.311C82.1763 36.8025 82.6906 34.1772 81.1942 32.0146C79.6977 29.852 77.0669 29.4185 74.9022 30.927ZM79.0477 36.918C77.5334 37.9732 75.9096 37.7475 74.9524 36.3642C73.9953 34.9809 74.3518 33.3753 75.8661 32.32C77.3804 31.2647 79.0042 31.4904 79.9614 32.8737C80.9185 34.257 80.562 35.8627 79.0477 36.918Z" fill="#1B1F21"/>
<path d="M81.6351 43.3742C82.0642 43.2714 82.4256 43.2581 82.719 43.3341C83.0143 43.4178 83.2487 43.569 83.4222 43.7876C83.6033 44.0043 83.7296 44.2626 83.8009 44.5626C83.8722 44.8625 83.8749 45.1464 83.809 45.4141C83.7525 45.6878 83.6114 45.9288 83.3856 46.1373C83.1598 46.3459 82.8323 46.5015 82.4031 46.6043C81.9816 46.7052 81.6232 46.7138 81.3279 46.6301C81.0326 46.5464 80.7944 46.3961 80.6133 46.1794C80.434 45.9703 80.3086 45.7159 80.2373 45.4159C80.166 45.116 80.1624 44.8283 80.2265 44.5528C80.2906 44.2774 80.4355 44.0354 80.6614 43.8269C80.889 43.626 81.2136 43.4751 81.6351 43.3742Z" fill="#1B1F21"/>
</svg>
