<svg  viewBox="0 0 144 89" fill="none" xmlns="http://www.w3.org/2000/svg">
<path d="M60.4903 3.04176C67.63 -1.01392 76.37 -1.01392 83.5097 3.04175L91.373 7.50842C94.8861 9.504 98.8555 10.5521 102.894 10.5502L119.231 10.5426C126.135 10.5394 131.731 16.1537 131.721 23.0739L131.721 23.3095C131.714 27.683 134.061 31.7202 137.86 33.8713C146.047 38.5063 146.047 50.3249 137.86 54.9599C134.061 57.1109 131.714 61.1481 131.721 65.5217L131.721 65.7573C131.731 72.6775 126.135 78.2918 119.231 78.2886L102.894 78.281C98.8555 78.2791 94.8861 79.3272 91.373 81.3227L83.5097 85.7894C76.37 89.8451 67.63 89.8451 60.4903 85.7894L52.627 81.3227C49.1139 79.3272 45.1445 78.2791 41.1065 78.281L24.7689 78.2886C17.8649 78.2918 12.2692 72.6774 12.2791 65.7573L12.2795 65.5217C12.2858 61.1481 9.93892 57.1109 6.13975 54.9599C-2.04658 50.3249 -2.04658 38.5063 6.13975 33.8713C9.93892 31.7202 12.2858 27.683 12.2795 23.3095L12.2791 23.0739C12.2692 16.1537 17.8649 10.5394 24.7689 10.5426L41.1065 10.5502C45.1445 10.5521 49.1139 9.504 52.627 7.50843L60.4903 3.04176Z" fill="#FFAD20"/>
<path fill-rule="evenodd" clip-rule="evenodd" d="M45.3061 14.6005C44.8719 14.6372 44.436 14.6614 43.999 14.6731C43.7934 14.6786 43.5876 14.6813 43.3816 14.6812L40.343 14.6799C40.3424 16.1258 41.5141 17.2986 42.96 17.2992L43.3804 17.2994C43.6101 17.2995 43.8396 17.2965 44.0688 17.2903C45.5143 17.2518 46.6548 16.0487 46.6162 14.6032C46.6149 14.5527 46.6121 14.5025 46.6079 14.4527C46.1761 14.5144 45.7419 14.5637 45.3061 14.6005ZM51.1013 13.3312C51.1216 13.3783 51.1434 13.4251 51.1668 13.4715C51.8163 14.7634 53.3901 15.2842 54.682 14.6347C54.8877 14.5313 55.092 14.425 55.2949 14.3158L55.6995 14.0979C56.9727 13.4124 57.4491 11.8246 56.7636 10.5514L54.0537 12.0105C53.8724 12.1081 53.6898 12.2031 53.506 12.2955C53.1159 12.4916 52.7202 12.676 52.3195 12.8486C51.9183 13.0214 51.512 13.1823 51.1013 13.3312ZM58.6279 9.54768C59.3134 10.8209 60.9012 11.2973 62.1744 10.6118L62.579 10.3939C62.6856 10.3365 62.7926 10.2802 62.9 10.225C64.1395 9.58711 64.6543 8.09697 64.0969 6.83865C63.6884 6.99106 63.2837 7.15573 62.8832 7.33266C62.485 7.50862 62.0911 7.69671 61.702 7.89692C61.5801 7.95963 61.4588 8.02353 61.3379 8.08862L58.6279 9.54768ZM65.3659 6.40805C65.6907 7.74675 67.0086 8.61483 68.3808 8.36386C68.6194 8.32022 68.8587 8.28093 69.0987 8.246C70.4795 8.04495 71.4507 6.80044 71.3298 5.42773C70.8932 5.44058 70.457 5.46598 70.0217 5.50393C69.5872 5.54182 69.1535 5.59222 68.7214 5.65514C68.4502 5.69463 68.1796 5.73905 67.9098 5.7884C67.4809 5.86684 67.0538 5.95775 66.6294 6.0611C66.2055 6.16433 65.7841 6.27998 65.3659 6.40805ZM72.6702 5.42773C72.5492 6.80044 73.5205 8.04494 74.9013 8.246C75.1412 8.28093 75.3805 8.32022 75.6191 8.36386C76.9914 8.61482 78.3092 7.74675 78.634 6.40805C78.2158 6.27998 77.7944 6.16433 77.3705 6.0611C76.9461 5.95774 76.5191 5.86684 76.0901 5.78839C75.8203 5.73905 75.5497 5.69463 75.2785 5.65514C74.8464 5.59222 74.4128 5.54182 73.9782 5.50393C73.5429 5.46598 73.1067 5.44058 72.6702 5.42773ZM79.9031 6.83865C79.3456 8.09697 79.8604 9.58711 81.1 10.225C81.2074 10.2802 81.3143 10.3365 81.4209 10.3939L81.8255 10.6118C83.0987 11.2973 84.6865 10.8208 85.372 9.54768L82.6621 8.08861C82.5412 8.02353 82.4198 7.95963 82.2979 7.89692C81.9088 7.69671 81.5149 7.50862 81.1167 7.33266C80.7163 7.15572 80.3115 6.99106 79.9031 6.83865ZM87.2363 10.5514C86.5508 11.8246 87.0272 13.4124 88.3004 14.0979L88.705 14.3157C88.9079 14.425 89.1122 14.5313 89.3179 14.6347C90.6098 15.2842 92.1836 14.7634 92.8331 13.4715C92.8565 13.4251 92.8783 13.3783 92.8986 13.3312C92.4879 13.1823 92.0816 13.0214 91.6804 12.8486C91.2797 12.676 90.884 12.4916 90.4939 12.2955C90.3101 12.2031 90.1275 12.1081 89.9462 12.0105L87.2363 10.5514ZM97.392 14.4527C97.3878 14.5025 97.385 14.5527 97.3837 14.6032C97.3451 16.0487 98.4856 17.2518 99.9311 17.2903C100.16 17.2965 100.39 17.2995 100.619 17.2994L101.04 17.2992C102.486 17.2986 103.658 16.1258 103.657 14.6799L100.618 14.6812C100.412 14.6813 100.207 14.6786 100.001 14.6731C99.5639 14.6614 99.128 14.6372 98.6938 14.6005C98.258 14.5637 97.8238 14.5144 97.392 14.4527ZM105.147 14.6792C105.148 16.1252 106.32 17.2969 107.766 17.2962L108.607 17.2959C110.053 17.2952 111.225 16.1225 111.224 14.6765L105.147 14.6792ZM112.714 14.6759C112.715 16.1219 113.888 17.2935 115.334 17.2929L115.754 17.2927C115.884 17.2927 116.014 17.2952 116.143 17.3003C117.493 17.3535 118.644 16.375 118.836 15.0679C118.416 14.9581 117.987 14.8701 117.549 14.8055C117.122 14.7424 116.687 14.7015 116.246 14.6841C116.082 14.6777 115.918 14.6745 115.753 14.6745L112.714 14.6759ZM121.291 16.0114C120.558 17.1022 120.745 18.5938 121.77 19.4653C121.964 19.6298 122.149 19.802 122.326 19.9811C123.27 20.9354 124.766 21.0119 125.798 20.2051C125.572 19.83 125.323 19.4687 125.053 19.123C124.785 18.7795 124.496 18.4513 124.188 18.1401C123.958 17.9071 123.717 17.6836 123.466 17.4703C123.134 17.1887 122.786 16.9249 122.422 16.6806C122.06 16.4378 121.682 16.2142 121.291 16.0114ZM126.869 22.6037C125.586 22.8223 124.637 23.968 124.696 25.3019C124.702 25.4249 124.705 25.5487 124.705 25.6733L124.704 25.6848C124.704 25.7156 124.705 25.7462 124.706 25.7768C124.705 25.8073 124.704 25.8379 124.704 25.8687L124.704 25.8802C124.704 26.1476 124.712 26.4139 124.728 26.6789C124.816 28.1221 126.058 29.2205 127.501 29.1321C127.616 29.1251 127.728 29.1109 127.838 29.0898C127.751 28.8273 127.674 28.561 127.609 28.2915C127.571 28.1346 127.536 27.9766 127.506 27.8176C127.453 27.5466 127.412 27.2727 127.382 26.9966C127.365 26.8381 127.351 26.6788 127.341 26.5188C127.328 26.3083 127.322 26.0967 127.322 25.8842L127.323 25.6773C127.323 25.5121 127.319 25.3478 127.312 25.1844C127.303 24.9763 127.287 24.7697 127.266 24.5648C127.242 24.3353 127.211 24.1079 127.172 23.8828C127.137 23.6761 127.095 23.4714 127.048 23.2687C126.995 23.0444 126.936 22.8226 126.869 22.6037ZM130.4 33.2237C130.338 33.3036 130.279 33.388 130.225 33.4769C129.471 34.7108 129.86 36.3222 131.094 37.0761C131.315 37.2114 131.541 37.341 131.772 37.4647C131.871 37.5177 131.968 37.5719 132.062 37.6272C133.224 38.3046 134.692 37.9871 135.477 36.9349C135.165 36.6376 134.831 36.3544 134.473 36.0875C134.13 35.8313 133.766 35.59 133.381 35.3655C133.26 35.2946 133.136 35.2253 133.01 35.1577C132.822 35.0571 132.639 34.9518 132.459 34.8419C132.083 34.6121 131.724 34.3626 131.384 34.0953C131.036 33.8226 130.708 33.5314 130.4 33.2237ZM136.497 38.0562C135.382 38.7214 134.908 40.1282 135.441 41.3501C135.525 41.5432 135.601 41.7391 135.669 41.9371C136.099 43.1988 137.397 43.9186 138.67 43.6576C138.637 43.221 138.577 42.7859 138.49 42.3553C138.403 41.9289 138.288 41.5069 138.147 41.0919C138.056 40.826 137.954 40.563 137.841 40.3036C137.668 39.9061 137.468 39.5172 137.242 39.1394C137.02 38.7667 136.771 38.4049 136.497 38.0562ZM138.67 45.1741C137.397 44.9132 136.099 45.633 135.669 46.8946C135.601 47.0927 135.525 47.2886 135.441 47.4817C134.908 48.7036 135.382 50.1104 136.497 50.7756C136.771 50.4269 137.02 50.065 137.242 49.6924C137.468 49.3145 137.668 48.9256 137.841 48.5282C137.954 48.2688 138.056 48.0058 138.147 47.7399C138.288 47.3249 138.403 46.9028 138.49 46.4764C138.577 46.0458 138.637 45.6108 138.67 45.1741ZM135.477 51.8969C134.692 50.8447 133.224 50.5272 132.062 51.2045C131.968 51.2599 131.871 51.3141 131.772 51.3671C131.541 51.4908 131.315 51.6204 131.094 51.7557C129.86 52.5096 129.471 54.121 130.225 55.3549C130.279 55.4437 130.338 55.5282 130.4 55.6081C130.708 55.3004 131.036 55.0091 131.384 54.7364C131.724 54.4691 132.083 54.2197 132.459 53.9898C132.639 53.88 132.822 53.7747 133.01 53.6741C133.136 53.6065 133.26 53.5372 133.381 53.4662C133.766 53.2418 134.13 53.0005 134.473 52.7442C134.831 52.4773 135.165 52.1942 135.477 51.8969ZM127.838 59.742C127.728 59.7209 127.616 59.7067 127.501 59.6996C126.058 59.6113 124.816 60.7096 124.728 62.1529C124.712 62.4179 124.704 62.6842 124.704 62.9516L124.704 62.9631C124.704 62.9938 124.705 63.0244 124.706 63.055C124.705 63.0855 124.704 63.1161 124.704 63.1469L124.705 63.1584C124.705 63.2831 124.702 63.4069 124.696 63.5298C124.637 64.8638 125.586 66.0094 126.869 66.2281C126.936 66.0091 126.995 65.7874 127.048 65.563C127.095 65.3604 127.137 65.1557 127.172 64.949C127.211 64.7239 127.242 64.4965 127.266 64.267C127.287 64.062 127.303 63.8555 127.312 63.6474C127.319 63.484 127.323 63.3196 127.323 63.1544L127.322 62.9476C127.322 62.7351 127.328 62.5234 127.341 62.3129C127.351 62.153 127.365 61.9937 127.382 61.8352C127.412 61.559 127.453 61.2852 127.506 61.0142C127.536 60.8552 127.571 60.6972 127.609 60.5402C127.674 60.2708 127.751 60.0045 127.838 59.742ZM125.798 68.6266C124.766 67.8198 123.27 67.8964 122.326 68.8507C122.149 69.0298 121.964 69.2019 121.77 69.3665C120.745 70.238 120.558 71.7296 121.291 72.8204C121.682 72.6176 122.06 72.394 122.422 72.1512C122.786 71.9069 123.134 71.6431 123.466 71.3615C123.717 71.1482 123.958 70.9247 124.188 70.6916C124.496 70.3805 124.785 70.0523 125.053 69.7087C125.323 69.363 125.572 69.0018 125.798 68.6266ZM118.836 73.7639C118.644 72.4568 117.493 71.4783 116.143 71.5315C116.014 71.5366 115.884 71.5391 115.754 71.539L115.334 71.5389C113.888 71.5382 112.715 72.7099 112.714 74.1559L115.753 74.1572C115.918 74.1573 116.082 74.1541 116.246 74.1476C116.687 74.1302 117.122 74.0893 117.549 74.0262C117.987 73.9616 118.416 73.8737 118.836 73.7639ZM111.224 74.1552C111.225 72.7092 110.053 71.5365 108.607 71.5359L107.766 71.5355C106.32 71.5349 105.148 72.7066 105.147 74.1526L111.224 74.1552ZM103.657 74.1519C103.658 72.7059 102.486 71.5332 101.04 71.5326L100.619 71.5324C100.39 71.5323 100.16 71.5353 99.9311 71.5414C98.4856 71.58 97.3451 72.7831 97.3837 74.2285C97.385 74.2791 97.3878 74.3293 97.392 74.3791C97.8238 74.3174 98.258 74.268 98.6938 74.2312C99.128 74.1946 99.5639 74.1703 100.001 74.1587C100.207 74.1532 100.412 74.1505 100.618 74.1506L103.657 74.1519ZM92.8986 75.5006C92.8783 75.4535 92.8565 75.4067 92.8331 75.3603C92.1836 74.0684 90.6098 73.5476 89.3179 74.1971C89.1122 74.3005 88.9079 74.4068 88.7051 74.516L88.3004 74.7339C87.0272 75.4194 86.5508 77.0072 87.2363 78.2804L89.9462 76.8213C90.1275 76.7237 90.3101 76.6287 90.4939 76.5363C90.884 76.3402 91.2797 76.1557 91.6805 75.9832C92.0817 75.8104 92.4879 75.6495 92.8986 75.5006ZM85.372 79.2841C84.6865 78.0109 83.0987 77.5345 81.8255 78.22L81.4209 78.4379C81.3143 78.4952 81.2073 78.5515 81.0999 78.6068C79.8604 79.2447 79.3456 80.7348 79.903 81.9931C80.3115 81.8407 80.7162 81.676 81.1167 81.4991C81.5149 81.3232 81.9088 81.1351 82.2979 80.9349C82.4198 80.8721 82.5412 80.8083 82.662 80.7432L85.372 79.2841ZM78.634 82.4237C78.3092 81.085 76.9913 80.2169 75.6191 80.4679C75.3805 80.5116 75.1412 80.5508 74.9013 80.5858C73.5205 80.7868 72.5492 82.0313 72.6702 83.404C73.1067 83.3912 73.5429 83.3658 73.9782 83.3278C74.4128 83.29 74.8464 83.2395 75.2785 83.1766C75.5497 83.1371 75.8203 83.0927 76.0901 83.0434C76.5191 82.9649 76.9461 82.874 77.3705 82.7707C77.7944 82.6674 78.2158 82.5518 78.634 82.4237ZM71.3298 83.404C71.4507 82.0313 70.4795 80.7868 69.0987 80.5858C68.8587 80.5508 68.6194 80.5116 68.3808 80.4679C67.0086 80.2169 65.6907 81.085 65.3659 82.4237C65.7841 82.5518 66.2055 82.6674 66.6294 82.7707C67.0538 82.874 67.4809 82.9649 67.9098 83.0434C68.1796 83.0927 68.4502 83.1371 68.7214 83.1766C69.1535 83.2395 69.5872 83.2899 70.0217 83.3278C70.457 83.3658 70.8932 83.3912 71.3298 83.404ZM64.0969 81.9931C64.6543 80.7348 64.1395 79.2446 62.9 78.6068C62.7926 78.5515 62.6856 78.4952 62.579 78.4379L62.1744 78.22C60.9012 77.5345 59.3134 78.0109 58.6279 79.2841L61.3379 80.7431C61.4588 80.8082 61.5801 80.8721 61.702 80.9348C62.0911 81.1351 62.485 81.3232 62.8833 81.4991C63.2837 81.676 63.6884 81.8407 64.0969 81.9931ZM56.7636 78.2804C57.4491 77.0072 56.9727 75.4194 55.6995 74.7339L55.2949 74.516C55.092 74.4068 54.8877 74.3005 54.682 74.1971C53.3901 73.5476 51.8163 74.0683 51.1668 75.3603C51.1434 75.4067 51.1216 75.4535 51.1013 75.5006C51.512 75.6495 51.9183 75.8104 52.3195 75.9832C52.7202 76.1557 53.1159 76.3402 53.506 76.5363C53.6898 76.6287 53.8724 76.7237 54.0537 76.8213L56.7636 78.2804ZM46.6079 74.3791C46.6121 74.3293 46.6149 74.2791 46.6162 74.2285C46.6548 72.7831 45.5143 71.58 44.0688 71.5414C43.8396 71.5353 43.6101 71.5323 43.3804 71.5324L42.96 71.5326C41.5141 71.5332 40.3424 72.7059 40.343 74.1519L43.3816 74.1506C43.5876 74.1505 43.7934 74.1532 43.999 74.1587C44.436 74.1703 44.8719 74.1946 45.3061 74.2312C45.742 74.268 46.1761 74.3174 46.6079 74.3791ZM38.8529 74.1526C38.8523 72.7066 37.6796 71.5349 36.2336 71.5355L35.3928 71.5359C33.9468 71.5365 32.7752 72.7092 32.7758 74.1552L38.8529 74.1526ZM31.2857 74.1559C31.2851 72.7099 30.1124 71.5382 28.6664 71.5389L28.246 71.539C28.1156 71.5391 27.9859 71.5366 27.8572 71.5315C26.5073 71.4783 25.356 72.4568 25.1639 73.7639C25.5837 73.8737 26.0131 73.9616 26.4506 74.0262C26.8778 74.0893 27.3127 74.1302 27.7541 74.1476C27.9176 74.1541 28.082 74.1573 28.2472 74.1572L31.2857 74.1559ZM22.7085 72.8204C23.4424 71.7296 23.2552 70.238 22.2298 69.3664C22.0362 69.2019 21.8506 69.0298 21.6734 68.8507C20.7298 67.8964 19.234 67.8198 18.2018 68.6266C18.4282 69.0018 18.6772 69.363 18.9471 69.7087C19.2153 70.0523 19.5041 70.3805 19.8118 70.6916C20.0423 70.9247 20.2833 71.1482 20.5342 71.3614C20.8656 71.6431 21.2142 71.9069 21.5783 72.1512C21.9403 72.394 22.3176 72.6176 22.7085 72.8204ZM17.131 66.2281C18.4142 66.0094 19.3634 64.8638 19.3034 63.5298C19.2979 63.4069 19.2952 63.2831 19.2954 63.1584L19.2954 63.1469C19.2955 63.1162 19.295 63.0855 19.294 63.055C19.2951 63.0245 19.2956 62.9938 19.2957 62.9631L19.2957 62.9516C19.2961 62.6842 19.2881 62.4179 19.2719 62.1529C19.1835 60.7096 17.9419 59.6113 16.4986 59.6996C16.3841 59.7067 16.2719 59.7209 16.1622 59.742C16.2491 60.0045 16.3255 60.2708 16.391 60.5402C16.4291 60.6972 16.4635 60.8552 16.4942 61.0142C16.5465 61.2852 16.5879 61.559 16.618 61.8352C16.6353 61.9937 16.6488 62.153 16.6586 62.3129C16.6715 62.5234 16.6779 62.7351 16.6775 62.9476L16.6772 63.1544C16.677 63.3196 16.6806 63.484 16.6879 63.6474C16.6973 63.8555 16.7127 64.062 16.7341 64.267C16.758 64.4965 16.7894 64.7239 16.8279 64.949C16.8634 65.1557 16.9048 65.3604 16.9522 65.563C17.0047 65.7874 17.0643 66.0091 17.131 66.2281ZM13.5994 55.6081C13.6621 55.5282 13.7208 55.4437 13.7751 55.3549C14.529 54.121 14.1399 52.5096 12.906 51.7557C12.6846 51.6204 12.4585 51.4908 12.228 51.3671C12.1292 51.3141 12.0324 51.2599 11.9375 51.2045C10.776 50.5272 9.30832 50.8447 8.52253 51.8969C8.83453 52.1942 9.16919 52.4773 9.52653 52.7442C9.86964 53.0005 10.2336 53.2418 10.6186 53.4662C10.7403 53.5372 10.8641 53.6065 10.99 53.6741C11.1775 53.7747 11.3612 53.88 11.5409 53.9898C11.917 54.2197 12.2759 54.4691 12.6163 54.7364C12.9636 55.0091 13.2917 55.3004 13.5994 55.6081ZM7.50261 50.7756C8.61822 50.1104 9.09154 48.7036 8.55873 47.4817C8.47451 47.2886 8.39862 47.0927 8.33106 46.8946C7.90072 45.633 6.60266 44.9132 5.33026 45.1741C5.36243 45.6108 5.42244 46.0458 5.51027 46.4764C5.59725 46.9028 5.71151 47.3249 5.85307 47.7399C5.94377 48.0058 6.04568 48.2688 6.1588 48.5282C6.33209 48.9256 6.53168 49.3145 6.75757 49.6924C6.98034 50.065 7.22868 50.4269 7.50261 50.7756ZM5.33026 43.6576C6.60266 43.9186 7.90072 43.1987 8.33106 41.9371C8.39862 41.7391 8.47451 41.5432 8.55873 41.3501C9.09154 40.1282 8.61822 38.7214 7.50261 38.0562C7.22868 38.4049 6.98034 38.7667 6.75757 39.1394C6.53168 39.5172 6.33209 39.9061 6.1588 40.3036C6.04568 40.5629 5.94377 40.826 5.85307 41.0919C5.71151 41.5069 5.59725 41.9289 5.51027 42.3553C5.42244 42.7859 5.36243 43.221 5.33026 43.6576ZM8.52253 36.9349C9.30832 37.9871 10.776 38.3046 11.9375 37.6272C12.0324 37.5719 12.1292 37.5177 12.228 37.4647C12.4585 37.341 12.6846 37.2114 12.906 37.0761C14.1399 36.3222 14.529 34.7108 13.7751 33.4769C13.7208 33.388 13.6621 33.3036 13.5994 33.2237C13.2917 33.5314 12.9636 33.8226 12.6163 34.0953C12.2759 34.3626 11.917 34.6121 11.5409 34.8419C11.3612 34.9518 11.1775 35.0571 10.99 35.1577C10.8641 35.2253 10.7403 35.2946 10.6186 35.3655C10.2336 35.59 9.86964 35.8313 9.52653 36.0875C9.16919 36.3544 8.83453 36.6376 8.52253 36.9349ZM16.1622 29.0898C16.2719 29.1109 16.3841 29.1251 16.4986 29.1321C17.9419 29.2205 19.1835 28.1221 19.2719 26.6789C19.2881 26.4139 19.2961 26.1476 19.2957 25.8802L19.2957 25.8687C19.2956 25.8379 19.2951 25.8073 19.294 25.7768C19.295 25.7463 19.2955 25.7156 19.2954 25.6848L19.2954 25.6733C19.2952 25.5487 19.2979 25.4249 19.3034 25.3019C19.3634 23.968 18.4142 22.8223 17.131 22.6037C17.0643 22.8226 17.0047 23.0444 16.9522 23.2687C16.9048 23.4714 16.8634 23.6761 16.8279 23.8828C16.7894 24.1079 16.758 24.3353 16.7341 24.5648C16.7127 24.7697 16.6973 24.9763 16.6879 25.1844C16.6806 25.3478 16.677 25.5121 16.6772 25.6773L16.6775 25.8842C16.6779 26.0967 16.6715 26.3083 16.6586 26.5188C16.6488 26.6788 16.6353 26.8381 16.618 26.9966C16.5879 27.2727 16.5465 27.5466 16.4942 27.8176C16.4635 27.9766 16.4291 28.1346 16.391 28.2915C16.3255 28.561 16.2491 28.8273 16.1622 29.0898ZM18.2018 20.2051C19.234 21.0119 20.7298 20.9354 21.6734 19.9811C21.8506 19.802 22.0362 19.6298 22.2298 19.4653C23.2552 18.5938 23.4424 17.1022 22.7085 16.0114C22.3176 16.2142 21.9403 16.4378 21.5783 16.6806C21.2142 16.9249 20.8656 17.1887 20.5342 17.4703C20.2833 17.6836 20.0422 17.9071 19.8118 18.1401C19.5041 18.4513 19.2153 18.7795 18.9471 19.123C18.6772 19.4687 18.4282 19.83 18.2018 20.2051ZM25.1639 15.0679C25.356 16.375 26.5073 17.3535 27.8572 17.3003C27.9859 17.2952 28.1156 17.2927 28.246 17.2927L28.6664 17.2929C30.1124 17.2935 31.2851 16.1219 31.2857 14.6759L28.2471 14.6745C28.082 14.6745 27.9176 14.6777 27.7541 14.6841C27.3127 14.7015 26.8778 14.7424 26.4506 14.8055C26.0131 14.8701 25.5837 14.9581 25.1639 15.0679ZM32.7758 14.6765C32.7751 16.1225 33.9468 17.2952 35.3928 17.2959L36.2336 17.2962C37.6796 17.2969 38.8523 16.1252 38.8529 14.6792L32.7758 14.6765Z" fill="#1B1F21"/>
<path d="M68.0315 64.5435C68.0315 63.778 68.1952 63.115 68.5227 62.5545C68.8633 61.9803 69.3284 61.536 69.9179 61.2216C70.5074 60.9072 71.1755 60.75 71.9222 60.75C72.682 60.75 73.3501 60.9072 73.9265 61.2216C74.516 61.5224 74.9745 61.9598 75.302 62.534C75.6426 63.0945 75.8129 63.7643 75.8129 64.5435C75.8129 65.309 75.6426 65.9789 75.302 66.553C74.9745 67.1135 74.516 67.551 73.9265 67.8654C73.3501 68.1798 72.682 68.337 71.9222 68.337C71.1755 68.337 70.5074 68.1866 69.9179 67.8859C69.3284 67.5715 68.8633 67.1272 68.5227 66.553C68.1952 65.9789 68.0315 65.309 68.0315 64.5435ZM70.3109 64.5435C70.3109 65.022 70.4615 65.4047 70.7628 65.6918C71.0641 65.9652 71.4506 66.1019 71.9222 66.1019C72.3807 66.1019 72.7606 65.9584 73.0619 65.6713C73.3763 65.3842 73.5335 65.0083 73.5335 64.5435C73.5335 64.065 73.3763 63.6891 73.0619 63.4157C72.7606 63.1286 72.3807 62.9851 71.9222 62.9851C71.4506 62.9851 71.0641 63.1286 70.7628 63.4157C70.4615 63.6891 70.3109 64.065 70.3109 64.5435Z" fill="#1B1F21"/>
<path d="M68.0315 24.4937C68.0315 23.7282 68.1952 23.0652 68.5227 22.5047C68.8633 21.9305 69.3284 21.4862 69.9179 21.1718C70.5074 20.8574 71.1755 20.7002 71.9222 20.7002C72.682 20.7002 73.3501 20.8574 73.9265 21.1718C74.516 21.4726 74.9745 21.91 75.302 22.4842C75.6426 23.0446 75.8129 23.7145 75.8129 24.4937C75.8129 25.2592 75.6426 25.9291 75.302 26.5032C74.9745 27.0637 74.516 27.5012 73.9265 27.8156C73.3501 28.13 72.682 28.2872 71.9222 28.2872C71.1755 28.2872 70.5074 28.1368 69.9179 27.8361C69.3284 27.5217 68.8633 27.0774 68.5227 26.5032C68.1952 25.9291 68.0315 25.2592 68.0315 24.4937ZM70.3109 24.4937C70.3109 24.9722 70.4615 25.3549 70.7628 25.642C71.0641 25.9154 71.4506 26.0521 71.9222 26.0521C72.3807 26.0521 72.7606 25.9086 73.0619 25.6215C73.3763 25.3344 73.5335 24.9585 73.5335 24.4937C73.5335 24.0152 73.3763 23.6393 73.0619 23.3659C72.7606 23.0788 72.3807 22.9353 71.9222 22.9353C71.4506 22.9353 71.0641 23.0788 70.7628 23.3659C70.4615 23.6393 70.3109 24.0152 70.3109 24.4937Z" fill="#1B1F21"/>
<path d="M114.478 38.25C111.063 38.25 108.562 40.8959 108.562 44.4814C108.562 48.0969 111.046 50.7765 114.463 50.7765C116.085 50.7765 117.455 50.2198 118.42 49.2379C119.385 48.2562 119.935 46.8596 119.935 45.1977V44.0281H113.257V46.2241H117.47C117.352 47.5802 116.119 48.5009 114.478 48.5009C113.405 48.5009 112.545 48.1055 111.952 47.4139C111.357 46.7199 111.019 45.7153 111.019 44.4814C111.019 43.2654 111.371 42.281 111.973 41.6024C112.575 40.9254 113.435 40.5415 114.478 40.5415C115.226 40.5415 115.843 40.7378 116.32 41.0938C116.798 41.4498 117.146 41.9726 117.346 42.6417L117.384 42.7707L119.69 42.0903L119.655 41.9627C119.041 39.7185 117.103 38.25 114.478 38.25Z" fill="#1B1F21"/>
<path d="M26.5012 38.4092H24.065V50.6173H26.3537V41.9637L29.5607 46.3196H30.1258L33.3325 41.9193V50.6173H35.6364V38.4092H33.1993L29.8877 43.0259L26.5012 38.4092Z" fill="#1B1F21"/>
<path fill-rule="evenodd" clip-rule="evenodd" d="M43.955 38.4092H41.4725L36.9998 50.6173H39.4297L40.6837 47.0518H44.6521L45.9061 50.6173H48.4277L43.955 38.4092ZM43.8685 44.8399H41.4672L42.6679 41.4478L43.8685 44.8399Z" fill="#1B1F21"/>
<path fill-rule="evenodd" clip-rule="evenodd" d="M54.3822 38.4092H49.797V50.6173H52.1774V45.8739H53.8021L56.723 50.6173H59.4409L56.2178 45.3755C57.4693 44.8498 58.2945 43.7274 58.2945 42.1415C58.2945 41.0175 57.8916 40.0813 57.1948 39.4267C56.4989 38.7729 55.5197 38.4092 54.3822 38.4092ZM52.1774 43.6301V40.653H54.3516C54.843 40.653 55.2316 40.8067 55.4965 41.0627C55.761 41.3184 55.9141 41.6874 55.9141 42.1415C55.9141 42.6041 55.7608 42.9727 55.4968 43.226C55.2324 43.4798 54.8439 43.6301 54.3516 43.6301H52.1774Z" fill="#1B1F21"/>
<path d="M63.2139 38.4092H60.8335V50.6173H63.2139V45.3486H64.2322L67.9331 50.6173H70.7698L66.2437 44.1194L70.6482 38.4092H67.7676L64.2961 43.0253H63.2139V38.4092Z" fill="#1B1F21"/>
<path d="M79.785 38.4092H71.9298V50.6173H79.9379V48.3736H74.3102V45.3805H78.0875V43.1367H74.3102V40.653H79.785V38.4092Z" fill="#1B1F21"/>
<path d="M89.8551 38.4092H80.7917V40.7007H84.1255V50.6173H86.506V40.7007H89.8551V38.4092Z" fill="#1B1F21"/>
<path d="M93.9041 38.4092H91.5237V50.6173H93.9041V38.4092Z" fill="#1B1F21"/>
<path d="M99.0592 38.4092H96.6014V50.6173H98.8595V42.1678L104.124 50.6173H106.582V38.4092H104.309V46.7968L99.0592 38.4092Z" fill="#1B1F21"/>
</svg>
