<svg  viewBox="0 0 104 106" fill="none" xmlns="http://www.w3.org/2000/svg">
<path d="M49.4814 3.05134L50.3209 3.59464L49.4814 3.05134L40.795 16.4741C40.5379 16.8715 40.0373 17.0342 39.5956 16.8638L24.6785 11.1103C22.6483 10.3272 20.486 11.8983 20.6033 14.0711L21.4656 30.036C21.4911 30.5087 21.1818 30.9345 20.7243 31.0563L5.2743 35.1697C3.17158 35.7295 2.34562 38.2715 3.71771 39.9604L13.7993 52.3694C14.0978 52.7368 14.0978 53.2632 13.7993 53.6306L3.7177 66.0396C2.34562 67.7285 3.17158 70.2705 5.2743 70.8303L20.7243 74.9437C21.1818 75.0655 21.4911 75.4913 21.4656 75.964L20.6033 91.9289C20.486 94.1017 22.6483 95.6728 24.6785 94.8897L39.5956 89.1362C40.0373 88.9658 40.5379 89.1285 40.795 89.5259L49.4814 102.949C50.6636 104.775 53.3364 104.775 54.5186 102.949L63.205 89.5259C63.4621 89.1285 63.9627 88.9658 64.4044 89.1362L79.3215 94.8897C81.3517 95.6728 83.5141 94.1017 83.3967 91.9289L82.5344 75.964C82.5089 75.4913 82.8182 75.0655 83.2757 74.9437L98.7257 70.8303C100.828 70.2705 101.654 67.7285 100.282 66.0396L90.2007 53.6306C89.9022 53.2632 89.9022 52.7368 90.2007 52.3694L100.282 39.9604C101.654 38.2715 100.828 35.7295 98.7257 35.1697L83.2757 31.0563C82.8182 30.9345 82.5089 30.5087 82.5344 30.036L83.3967 14.0711C83.514 11.8983 81.3517 10.3272 79.3215 11.1103L64.4044 16.8638C63.9627 17.0342 63.4621 16.8715 63.205 16.4741L54.5186 3.05134L53.6791 3.59464L54.5186 3.05134C53.3364 1.22452 50.6636 1.22453 49.4814 3.05134Z" fill="#90EECB" stroke="#90EECB" stroke-width="2"/>
<path fill-rule="evenodd" clip-rule="evenodd" d="M51.7883 8.99685L43.5677 21.6999C42.8247 22.848 41.3786 23.3179 40.1027 22.8258L25.9854 17.3807L26.8015 32.4897C26.8752 33.8552 25.9815 35.0853 24.66 35.4372L10.0383 39.33L19.5794 51.0737C20.4417 52.1351 20.4417 53.6556 19.5794 54.717L10.0383 66.4607L24.66 70.3535C25.9815 70.7053 26.8752 71.9355 26.8015 73.301L25.9854 88.41L40.1027 82.9649C41.3786 82.4728 42.8247 82.9427 43.5677 84.0907L51.7883 96.7938L60.0089 84.0907C60.7519 82.9427 62.198 82.4728 63.4739 82.9649L77.5912 88.41L76.7751 73.301C76.7014 71.9355 77.5951 70.7053 78.9166 70.3535L93.5382 66.4607L83.9972 54.717C83.1349 53.6556 83.1349 52.1351 83.9972 51.0737L93.5382 39.33L78.9166 35.4372C77.5951 35.0853 76.7014 33.8552 76.7751 32.4897L77.5912 17.3807L63.4739 22.8258C62.198 23.3179 60.7519 22.848 60.0089 21.6999L51.7883 8.99685ZM52.7584 7.30558C52.3031 6.60192 51.2735 6.60192 50.8181 7.30558L42.1125 20.7582C41.8153 21.2175 41.2368 21.4054 40.7265 21.2086L25.7761 15.4422C24.9941 15.1406 24.1612 15.7458 24.2064 16.5827L25.0707 32.5832C25.1002 33.1294 24.7427 33.6214 24.2141 33.7622L8.72963 37.8847C7.91969 38.1003 7.60154 39.0795 8.13005 39.73L18.2341 52.1667C18.579 52.5912 18.579 53.1995 18.2341 53.624L8.13005 66.0607C7.60154 66.7112 7.91969 67.6904 8.72963 67.906L24.2141 72.0285C24.7427 72.1692 25.1002 72.6613 25.0707 73.2075L24.2064 89.208C24.1612 90.0449 24.9941 90.6501 25.7761 90.3485L40.7265 84.5821C41.2368 84.3853 41.8153 84.5732 42.1125 85.0325L50.8181 98.4851C51.2735 99.1888 52.3031 99.1888 52.7584 98.4851L61.4641 85.0325C61.7613 84.5732 62.3397 84.3853 62.8501 84.5821L77.8004 90.3485C78.5824 90.6501 79.4153 90.0449 79.3701 89.208L78.5059 73.2075C78.4764 72.6613 78.8339 72.1692 79.3625 72.0285L94.8469 67.906C95.6569 67.6904 95.975 66.7112 95.4465 66.0607L85.3425 53.624C84.9976 53.1995 84.9976 52.5912 85.3425 52.1667L95.4465 39.73C95.975 39.0795 95.6569 38.1003 94.8469 37.8847L79.3625 33.7622C78.8339 33.6214 78.4764 33.1294 78.5059 32.5832L79.3701 16.5827C79.4153 15.7458 78.5824 15.1406 77.8004 15.4422L62.8501 21.2086C62.3397 21.4054 61.7613 21.2175 61.4641 20.7582L52.7584 7.30558Z" fill="#1B1F21"/>
<path d="M29.8261 44.7974V37.5136H34.5923V38.7637H31.3781V40.5407H34.372V41.7909H31.3781V44.7974H29.8261Z" fill="#1B1F21"/>
<path d="M34.1976 44.7974L37.4418 37.5136H38.6934L41.9376 44.7974H40.3756L39.7147 43.2166H36.4204L35.7696 44.7974H34.1976ZM38.0526 39.2183L36.9411 41.9665H39.2041L38.0726 39.2183H38.0526Z" fill="#1B1F21"/>
<path d="M44.983 44.911C44.4289 44.911 43.9049 44.8387 43.4109 44.694C42.9236 44.5494 42.5164 44.3531 42.1893 44.1051L42.6399 42.8447C42.9537 43.072 43.3108 43.2511 43.7113 43.3819C44.1185 43.5128 44.5424 43.5782 44.983 43.5782C45.4636 43.5782 45.8074 43.5025 46.0143 43.3509C46.2279 43.1925 46.3347 42.9962 46.3347 42.762C46.3347 42.5623 46.2613 42.4039 46.1144 42.2868C45.9676 42.1697 45.7106 42.0698 45.3434 41.9872L44.212 41.7392C42.9503 41.4637 42.3195 40.7887 42.3195 39.7142C42.3195 39.2527 42.4397 38.8498 42.68 38.5054C42.9203 38.1541 43.2541 37.882 43.6813 37.6892C44.1152 37.4963 44.6158 37.3999 45.1832 37.3999C45.6705 37.3999 46.1278 37.4722 46.555 37.6169C46.9822 37.7615 47.336 37.9647 47.6164 38.2264L47.1658 39.4042C46.6184 38.9565 45.9542 38.7327 45.1732 38.7327C44.7527 38.7327 44.4256 38.8188 44.1919 38.991C43.965 39.1563 43.8515 39.3732 43.8515 39.6419C43.8515 39.8416 43.9216 40.0035 44.0618 40.1275C44.2019 40.2514 44.4456 40.3513 44.7927 40.4271L45.9242 40.675C47.2192 40.9643 47.8667 41.6187 47.8667 42.6381C47.8667 43.0926 47.7465 43.4921 47.5062 43.8365C47.2726 44.174 46.9388 44.4392 46.5049 44.6321C46.0777 44.818 45.5704 44.911 44.983 44.911Z" fill="#1B1F21"/>
<path d="M48.8743 44.7974V37.5136H50.4263V40.4374H53.7105V37.5136H55.2626V44.7974H53.7105V41.7702H50.4263V44.7974H48.8743Z" fill="#1B1F21"/>
<path d="M56.6871 44.7974V37.5136H58.2391V44.7974H56.6871Z" fill="#1B1F21"/>
<path d="M62.9242 44.911C62.23 44.911 61.6192 44.756 61.0918 44.4461C60.5712 44.1293 60.164 43.6919 59.8702 43.134C59.5832 42.5692 59.4397 41.9079 59.4397 41.1503C59.4397 40.3926 59.5832 39.7349 59.8702 39.1769C60.164 38.6121 60.5712 38.1748 61.0918 37.8648C61.6125 37.5549 62.2233 37.3999 62.9242 37.3999C63.6251 37.3999 64.2359 37.5549 64.7566 37.8648C65.2839 38.1748 65.6911 38.6121 65.9782 39.1769C66.2719 39.7349 66.4187 40.3892 66.4187 41.14C66.4187 41.8976 66.2719 42.5588 65.9782 43.1236C65.6911 43.6884 65.2839 44.1293 64.7566 44.4461C64.2359 44.756 63.6251 44.911 62.9242 44.911ZM62.9242 43.5472C63.5116 43.5472 63.9689 43.3372 64.296 42.917C64.6298 42.49 64.7966 41.9011 64.7966 41.1503C64.7966 40.3926 64.6331 39.8072 64.306 39.3939C63.9789 38.9738 63.5183 38.7637 62.9242 38.7637C62.3435 38.7637 61.8862 38.9738 61.5524 39.3939C61.2253 39.8072 61.0618 40.3926 61.0618 41.1503C61.0618 41.9011 61.2253 42.49 61.5524 42.917C61.8862 43.3372 62.3435 43.5472 62.9242 43.5472Z" fill="#1B1F21"/>
<path d="M67.6193 44.7974V37.5136H68.7708L72.2953 42.1525V37.5136H73.7372V44.7974H72.5957L69.0612 40.1481V44.7974H67.6193Z" fill="#1B1F21"/>
<path d="M29.8261 56.9307V49.6469H34.5923V50.897H31.3781V52.6741H34.372V53.9242H31.3781V56.9307H29.8261Z" fill="#1B1F21"/>
<path d="M34.1976 56.9307L37.4418 49.6469H38.6934L41.9376 56.9307H40.3756L39.7147 55.35H36.4204L35.7696 56.9307H34.1976ZM38.0526 51.3516L36.9411 54.0998H39.2041L38.0726 51.3516H38.0526Z" fill="#1B1F21"/>
<path d="M44.983 57.0443C44.4289 57.0443 43.9049 56.972 43.4109 56.8274C42.9236 56.6827 42.5164 56.4864 42.1893 56.2385L42.6399 54.978C42.9537 55.2053 43.3108 55.3844 43.7113 55.5153C44.1185 55.6461 44.5424 55.7116 44.983 55.7116C45.4636 55.7116 45.8074 55.6358 46.0143 55.4843C46.2279 55.3258 46.3347 55.1295 46.3347 54.8954C46.3347 54.6956 46.2613 54.5372 46.1144 54.4201C45.9676 54.303 45.7106 54.2031 45.3434 54.1205L44.212 53.8725C42.9503 53.597 42.3195 52.922 42.3195 51.8475C42.3195 51.386 42.4397 50.9831 42.68 50.6387C42.9203 50.2874 43.2541 50.0154 43.6813 49.8225C44.1152 49.6297 44.6158 49.5332 45.1832 49.5332C45.6705 49.5332 46.1278 49.6056 46.555 49.7502C46.9822 49.8948 47.336 50.098 47.6164 50.3598L47.1658 51.5376C46.6184 51.0899 45.9542 50.866 45.1732 50.866C44.7527 50.866 44.4256 50.9521 44.1919 51.1243C43.965 51.2896 43.8515 51.5066 43.8515 51.7752C43.8515 51.975 43.9216 52.1368 44.0618 52.2608C44.2019 52.3848 44.4456 52.4846 44.7927 52.5604L45.9242 52.8084C47.2192 53.0977 47.8667 53.752 47.8667 54.7714C47.8667 55.226 47.7465 55.6255 47.5062 55.9699C47.2726 56.3074 46.9388 56.5725 46.5049 56.7654C46.0777 56.9514 45.5704 57.0443 44.983 57.0443Z" fill="#1B1F21"/>
<path d="M48.8743 56.9307V49.6469H50.4263V52.5707H53.7105V49.6469H55.2626V56.9307H53.7105V53.9035H50.4263V56.9307H48.8743Z" fill="#1B1F21"/>
<path d="M56.6871 56.9307V49.6469H58.2391V56.9307H56.6871Z" fill="#1B1F21"/>
<path d="M62.9242 57.0443C62.23 57.0443 61.6192 56.8894 61.0918 56.5794C60.5712 56.2626 60.164 55.8252 59.8702 55.2673C59.5832 54.7025 59.4397 54.0413 59.4397 53.2836C59.4397 52.526 59.5832 51.8682 59.8702 51.3103C60.164 50.7455 60.5712 50.3081 61.0918 49.9982C61.6125 49.6882 62.2233 49.5332 62.9242 49.5332C63.6251 49.5332 64.2359 49.6882 64.7566 49.9982C65.2839 50.3081 65.6911 50.7455 65.9782 51.3103C66.2719 51.8682 66.4187 52.5225 66.4187 53.2733C66.4187 54.0309 66.2719 54.6922 65.9782 55.257C65.6911 55.8218 65.2839 56.2626 64.7566 56.5794C64.2359 56.8894 63.6251 57.0443 62.9242 57.0443ZM62.9242 55.6806C63.5116 55.6806 63.9689 55.4705 64.296 55.0503C64.6298 54.6233 64.7966 54.0344 64.7966 53.2836C64.7966 52.526 64.6331 51.9405 64.306 51.5272C63.9789 51.1071 63.5183 50.897 62.9242 50.897C62.3435 50.897 61.8862 51.1071 61.5524 51.5272C61.2253 51.9405 61.0618 52.526 61.0618 53.2836C61.0618 54.0344 61.2253 54.6233 61.5524 55.0503C61.8862 55.4705 62.3435 55.6806 62.9242 55.6806Z" fill="#1B1F21"/>
<path d="M67.6193 56.9307V49.6469H68.7708L72.2953 54.2858V49.6469H73.7372V56.9307H72.5957L69.0612 52.2815V56.9307H67.6193Z" fill="#1B1F21"/>
<path d="M29.8261 68.495V61.7715H34.5923V62.9254H31.3781V64.5658H34.372V65.7198H31.3781V68.495H29.8261Z" fill="#1B1F21"/>
<path d="M34.1976 68.495L37.4418 61.7715H38.6934L41.9376 68.495H40.3756L39.7147 67.0359H36.4204L35.7696 68.495H34.1976ZM38.0526 63.3451L36.9411 65.8819H39.2041L38.0726 63.3451H38.0526Z" fill="#1B1F21"/>
<path d="M44.983 68.5999C44.4289 68.5999 43.9049 68.5331 43.4109 68.3996C42.9236 68.2661 42.5164 68.0849 42.1893 67.856L42.6399 66.6925C42.9537 66.9023 43.3108 67.0676 43.7113 67.1884C44.1185 67.3092 44.5424 67.3696 44.983 67.3696C45.4636 67.3696 45.8074 67.2997 46.0143 67.1598C46.2279 67.0136 46.3347 66.8324 46.3347 66.6162C46.3347 66.4318 46.2613 66.2856 46.1144 66.1775C45.9676 66.0694 45.7106 65.9773 45.3434 65.901L44.212 65.6721C42.9503 65.4178 42.3195 64.7947 42.3195 63.8028C42.3195 63.3769 42.4397 63.0049 42.68 62.687C42.9203 62.3628 43.2541 62.1116 43.6813 61.9336C44.1152 61.7556 44.6158 61.6666 45.1832 61.6666C45.6705 61.6666 46.1278 61.7333 46.555 61.8668C46.9822 62.0004 47.336 62.1879 47.6164 62.4295L47.1658 63.5167C46.6184 63.1035 45.9542 62.8968 45.1732 62.8968C44.7527 62.8968 44.4256 62.9763 44.1919 63.1353C43.965 63.2878 43.8515 63.4881 43.8515 63.7361C43.8515 63.9205 43.9216 64.0699 44.0618 64.1843C44.2019 64.2988 44.4456 64.3909 44.7927 64.4609L45.9242 64.6898C47.2192 64.9568 47.8667 65.5608 47.8667 66.5018C47.8667 66.9214 47.7465 67.2902 47.5062 67.6081C47.2726 67.9196 46.9388 68.1644 46.5049 68.3424C46.0777 68.5141 45.5704 68.5999 44.983 68.5999Z" fill="#1B1F21"/>
<path d="M48.8743 68.495V61.7715H50.4263V64.4704H53.7105V61.7715H55.2626V68.495H53.7105V65.7007H50.4263V68.495H48.8743Z" fill="#1B1F21"/>
<path d="M56.6871 68.495V61.7715H58.2391V68.495H56.6871Z" fill="#1B1F21"/>
<path d="M62.9242 68.5999C62.23 68.5999 61.6192 68.4569 61.0918 68.1707C60.5712 67.8783 60.164 67.4745 59.8702 66.9596C59.5832 66.4382 59.4397 65.8278 59.4397 65.1285C59.4397 64.4291 59.5832 63.8219 59.8702 63.3069C60.164 62.7856 60.5712 62.3818 61.0918 62.0957C61.6125 61.8096 62.2233 61.6666 62.9242 61.6666C63.6251 61.6666 64.2359 61.8096 64.7566 62.0957C65.2839 62.3818 65.6911 62.7856 65.9782 63.3069C66.2719 63.8219 66.4187 64.4259 66.4187 65.1189C66.4187 65.8183 66.2719 66.4287 65.9782 66.95C65.6911 67.4714 65.2839 67.8783 64.7566 68.1707C64.2359 68.4569 63.6251 68.5999 62.9242 68.5999ZM62.9242 67.341C63.5116 67.341 63.9689 67.1471 64.296 66.7593C64.6298 66.3651 64.7966 65.8215 64.7966 65.1285C64.7966 64.4291 64.6331 63.8887 64.306 63.5072C63.9789 63.1194 63.5183 62.9254 62.9242 62.9254C62.3435 62.9254 61.8862 63.1194 61.5524 63.5072C61.2253 63.8887 61.0618 64.4291 61.0618 65.1285C61.0618 65.8215 61.2253 66.3651 61.5524 66.7593C61.8862 67.1471 62.3435 67.341 62.9242 67.341Z" fill="#1B1F21"/>
<path d="M67.6193 68.495V61.7715H68.7708L72.2953 66.0535V61.7715H73.7372V68.495H72.5957L69.0612 64.2034V68.495H67.6193Z" fill="#1B1F21"/>
</svg>
