<svg width="17" height="17" viewBox="0 0 17 17" fill="none" xmlns="http://www.w3.org/2000/svg">
<path fill-rule="evenodd" clip-rule="evenodd" d="M4.22413 0.55192C4.07338 0.622474 3.94907 0.765195 3.90726 0.915704C3.88998 0.977921 3.87577 1.16777 3.87568 1.33754L3.8755 1.64619L3.27462 1.65976C2.60206 1.67491 2.42672 1.71197 2.05004 1.91846C1.74665 2.08479 1.38898 2.46202 1.233 2.78023C0.979835 3.29668 1.0004 2.75872 1.0004 8.86311C1.0004 14.9564 0.980778 14.4314 1.22722 14.9343C1.45382 15.3968 1.89314 15.779 2.41154 15.9646L2.67374 16.0585H8.5H14.3263L14.5696 15.9728C15.2532 15.7322 15.7578 15.1892 15.9462 14.4916C15.9962 14.3065 15.9996 13.9459 15.9996 8.86311C15.9996 2.75698 16.0203 3.29705 15.7661 2.77825C15.5873 2.41355 15.225 2.05233 14.8587 1.87358C14.5019 1.69949 14.2405 1.65255 13.6278 1.65255H13.1245L13.1243 1.3407C13.1241 0.970285 13.0915 0.834532 12.9693 0.69534C12.7055 0.3949 12.2023 0.458304 12.0303 0.813661C11.9788 0.919933 11.9684 1.00171 11.9684 1.29707V1.65255H8.5024H5.03646L5.02642 1.26227C5.01735 0.908736 5.00951 0.861944 4.94309 0.765134C4.77673 0.522652 4.47672 0.433691 4.22413 0.55192ZM3.88092 3.16616C3.89467 3.58212 3.94103 3.71076 4.12519 3.84417C4.34668 4.00462 4.62856 3.98886 4.8388 3.80428C5.00196 3.66101 5.03162 3.5618 5.03162 3.15953V2.80867H8.5H11.9684V3.15953C11.9684 3.5618 11.998 3.66101 12.1612 3.80428C12.3757 3.99261 12.6707 4.00204 12.8991 3.82783C13.0604 3.70482 13.1058 3.56819 13.1191 3.16616L13.1309 2.80867H13.6134C14.0247 2.80867 14.1203 2.81783 14.262 2.87086C14.4713 2.94917 14.6583 3.12865 14.7628 3.3516L14.8435 3.52365L14.8534 4.45919L14.8633 5.39474H8.5H2.13666L2.14706 4.45919C2.1561 3.64233 2.16431 3.50822 2.21162 3.40195C2.29797 3.20809 2.41057 3.06317 2.54298 2.97555C2.76094 2.83131 2.85321 2.81312 3.37791 2.8108L3.86908 2.80867L3.88092 3.16616ZM14.8517 10.3767L14.8435 14.2026L14.764 14.3699C14.6687 14.5704 14.5046 14.7395 14.3141 14.8334L14.1741 14.9023H8.5H2.82586L2.68509 14.833C2.49046 14.7371 2.32991 14.5723 2.23596 14.372L2.15653 14.2026L2.14825 10.3767L2.13994 6.55087H8.5H14.8601L14.8517 10.3767Z" fill="#fff" stroke="#fff" stroke-width="0.2"/>
</svg>
