<svg width="32" height="32" viewBox="0 0 32 32" fill="none" xmlns="http://www.w3.org/2000/svg">
<path fill-rule="evenodd" clip-rule="evenodd" d="M2.34315 2.34315C0 4.68629 0 8.45753 0 16C0 23.5425 0 27.3137 2.34315 29.6569C4.68629 32 8.45753 32 16 32C23.5425 32 27.3137 32 29.6569 29.6569C32 27.3137 32 23.5425 32 16C32 8.45753 32 4.68629 29.6569 2.34315C27.3137 0 23.5425 0 16 0C8.45753 0 4.68629 0 2.34315 2.34315ZM13.2558 22.0501L22.7729 16.3843C23.0998 16.1897 23.0983 15.7159 22.7701 15.5234L13.253 9.94161C12.9196 9.74611 12.5 9.98648 12.5 10.3729V21.6204C12.5 22.0083 12.9225 22.2485 13.2558 22.0501Z" fill="#757778"/>
</svg>
