<svg width="340" height="224" viewBox="0 0 340 224" fill="none" xmlns="http://www.w3.org/2000/svg">
<path d="M0 70.2545C0 31.454 27.4571 0 60.9655 0C80.8457 0 98.5959 11.0716 109.746 28.1802C125.352 10.7329 146.594 0 170 0C193.376 0 214.592 10.7047 230.193 28.1115C241.261 11.0419 258.888 0 278.741 0H340V153.745C340 192.546 312.543 224 279.034 224C259.154 224 241.404 212.928 230.254 195.82C214.648 213.267 193.406 224 170 224C146.624 224 125.408 213.295 109.807 195.889C98.7385 212.958 81.1122 224 61.2586 224H0V70.2545Z" fill="black"/>
</svg>
