<svg width="704" height="320" viewBox="0 0 704 320" fill="none" xmlns="http://www.w3.org/2000/svg">
<path d="M146.667 320C181.351 320 213.224 306.866 238.333 284.907C269.469 306.866 308.991 320 352 320C395.009 320 434.531 306.866 465.667 284.907C490.776 306.866 522.649 320 557.333 320C638.335 320 704 248.366 704 160C704 71.6344 638.335 0 557.333 0C522.649 0 490.776 13.1344 465.667 35.0926C434.531 13.1344 395.009 0 352 0C308.991 0 269.469 13.1344 238.333 35.0926C213.224 13.1344 181.351 0 146.667 0C65.6649 0 0 71.6344 0 160C0 248.366 65.6649 320 146.667 320Z" fill="black"/>
</svg>
