<svg width="64" height="64" viewBox="0 0 64 64" fill="none" xmlns="http://www.w3.org/2000/svg">
<path d="M0 13.5901C0 6.08451 6.08451 0 13.5901 0C17.1337 0 20.3604 1.3562 22.7797 3.57787C25.2105 1.35563 28.4469 0 32 0C35.553 0 38.7895 1.35562 41.2203 3.57787C43.6396 1.3562 46.8663 0 50.4099 0C57.9155 0 64 6.08451 64 13.5901V50.4099C64 57.9155 57.9155 64 50.4099 64C46.8663 64 43.6396 62.6438 41.2203 60.4221C38.7895 62.6444 35.553 64 32 64C28.4469 64 25.2105 62.6444 22.7797 60.4221C20.3604 62.6438 17.1337 64 13.5901 64C6.08451 64 0 57.9155 0 50.4099V13.5901Z" fill="#D9D9D9"/>
</svg>
