<svg width="17" height="17" viewBox="0 0 17 17" fill="none" xmlns="http://www.w3.org/2000/svg">
<path fill-rule="evenodd" clip-rule="evenodd" d="M7.77824 0.518932C6.23305 0.670303 4.80492 1.23988 3.55276 2.20416C2.94299 2.67374 2.15111 3.55623 1.6935 4.27612C1.49586 4.58703 1.11115 5.37487 0.97333 5.75085C0.819236 6.17128 0.655001 6.81376 0.574183 7.31229C0.475272 7.92247 0.475272 9.08097 0.574183 9.69115C0.714035 10.5537 0.935268 11.2511 1.31394 12.0231C1.72768 12.8665 2.15788 13.4643 2.84677 14.1532C3.5357 14.8421 4.13355 15.2723 4.97695 15.6861C5.74895 16.0647 6.44627 16.286 7.30885 16.4258C7.91903 16.5247 9.07753 16.5247 9.68771 16.4258C10.5503 16.286 11.2476 16.0647 12.0196 15.6861C12.863 15.2723 13.4609 14.8421 14.1498 14.1532C14.8387 13.4643 15.2689 12.8665 15.6826 12.0231C15.9574 11.4628 16.0956 11.0957 16.2437 10.5327C16.4408 9.78289 16.4909 9.37188 16.4909 8.50172C16.4909 7.63156 16.4408 7.22055 16.2437 6.47077C16.0956 5.90776 15.9574 5.54061 15.6826 4.98038C15.2689 4.13699 14.8387 3.53914 14.1498 2.85021C13.4609 2.16131 12.863 1.73112 12.0196 1.31738C11.2484 0.939051 10.5372 0.713341 9.70336 0.58216C9.24327 0.509793 8.21592 0.47605 7.77824 0.518932ZM9.24289 1.77425C10.7692 1.94237 12.1664 2.61902 13.2737 3.72632C14.5728 5.02549 15.2592 6.67629 15.2592 8.50172C15.2592 10.3271 14.5728 11.978 13.2737 13.2771C11.9745 14.5763 10.3237 15.2627 8.49828 15.2627C6.67285 15.2627 5.02205 14.5763 3.72288 13.2771C2.42371 11.978 1.73732 10.3271 1.73732 8.50172C1.73732 6.67629 2.42371 5.02549 3.72288 3.72632C4.815 2.63421 6.22679 1.94443 7.71576 1.7755C8.06026 1.73644 8.89336 1.73575 9.24289 1.77425ZM8.22859 4.27339C8.07826 4.34166 7.95581 4.49068 7.90488 4.66738C7.8789 4.75759 7.87148 5.33934 7.87837 6.74888C7.88767 8.65434 7.88961 8.70843 7.95252 8.83038C8.00486 8.93182 8.25445 9.13559 9.26715 9.90381C9.95467 10.4253 10.58 10.8897 10.6568 10.9357C11.1802 11.2495 11.7988 10.6911 11.5339 10.1439C11.4705 10.0129 11.3446 9.90903 10.2938 9.12079L9.1243 8.24355V6.49925C9.1243 5.27849 9.11359 4.72303 9.08868 4.64857C8.99991 4.38348 8.77041 4.21489 8.49828 4.21489C8.42081 4.21489 8.29946 4.24122 8.22859 4.27339Z" fill="#AEAEAE" stroke="#AEAEAE" stroke-width="0.2"/>
</svg>
