<svg width="320" height="242" viewBox="0 0 320 242" fill="none" xmlns="http://www.w3.org/2000/svg">
<path d="M145.765 115.728L28.0527 241.033L293.376 203.867L145.765 115.728Z" fill="#FE6D44"/>
<path fill-rule="evenodd" clip-rule="evenodd" d="M269.652 196.377L263.395 197.254C262.192 197.422 261.353 198.534 261.522 199.738C261.69 200.941 262.802 201.78 264.006 201.611L270.262 200.735C271.465 200.566 272.304 199.454 272.136 198.251C271.967 197.047 270.855 196.209 269.652 196.377ZM244.626 199.883L232.113 201.636C230.91 201.804 230.071 202.916 230.24 204.12C230.408 205.323 231.52 206.162 232.723 205.993L245.236 204.24C246.44 204.072 247.278 202.96 247.11 201.756C246.941 200.553 245.829 199.714 244.626 199.883ZM213.344 204.265L200.831 206.018C199.627 206.186 198.789 207.298 198.957 208.501C199.126 209.705 200.238 210.544 201.441 210.375L213.954 208.622C215.157 208.454 215.996 207.342 215.828 206.138C215.659 204.935 214.547 204.096 213.344 204.265ZM182.061 208.647L169.548 210.4C168.345 210.568 167.506 211.68 167.675 212.883C167.844 214.087 168.956 214.926 170.159 214.757L182.672 213.004C183.875 212.836 184.714 211.724 184.545 210.52C184.377 209.317 183.265 208.478 182.061 208.647ZM150.779 213.029L138.266 214.781C137.063 214.95 136.224 216.062 136.393 217.265C136.561 218.469 137.673 219.307 138.877 219.139L151.389 217.386C152.593 217.218 153.432 216.105 153.263 214.902C153.094 213.699 151.982 212.86 150.779 213.029ZM119.497 217.411L106.984 219.163C105.781 219.332 104.942 220.444 105.11 221.647C105.279 222.851 106.391 223.689 107.594 223.521L120.107 221.768C121.31 221.6 122.149 220.487 121.981 219.284C121.812 218.081 120.7 217.242 119.497 217.411ZM88.2146 221.793L75.7016 223.545C74.4984 223.714 73.6595 224.826 73.8281 226.029C73.9967 227.233 75.1087 228.071 76.312 227.903L88.8249 226.15C90.0282 225.982 90.867 224.869 90.6985 223.666C90.5299 222.463 89.4178 221.624 88.2146 221.793ZM56.9323 226.175L50.6758 227.051C49.4725 227.22 48.6337 228.332 48.8023 229.535C48.9708 230.738 50.0829 231.577 51.2862 231.408L57.5426 230.532C58.7459 230.363 59.5847 229.251 59.4162 228.048C59.2476 226.845 58.1355 226.006 56.9323 226.175Z" fill="#1B1F21"/>
<path d="M149.205 134.891L293.376 203.865L268.875 28.9595L149.205 134.891Z" fill="#FE6D44"/>
<path d="M149.205 134.891L293.376 203.865L268.875 28.9595L149.205 134.891Z" fill="#FCFAF9" fill-opacity="0.12"/>
<path fill-rule="evenodd" clip-rule="evenodd" d="M283.561 188.998C284.222 188.521 284.565 187.717 284.452 186.909L283.446 179.728C283.277 178.525 282.165 177.686 280.962 177.855C279.759 178.023 278.92 179.135 279.088 180.339L279.517 183.395L276.885 182.093C275.796 181.554 274.476 182 273.937 183.089C273.399 184.178 273.844 185.498 274.933 186.037L281.297 189.186C282.028 189.548 282.899 189.475 283.561 188.998ZM279.561 167.85C280.764 167.682 281.603 166.57 281.434 165.367L279.422 151.005C279.254 149.802 278.142 148.963 276.938 149.131C275.735 149.3 274.896 150.412 275.065 151.615L277.077 165.977C277.245 167.18 278.357 168.019 279.561 167.85ZM275.537 139.127C276.74 138.959 277.579 137.847 277.411 136.643L275.399 122.282C275.23 121.079 274.118 120.24 272.915 120.408C271.712 120.577 270.873 121.689 271.041 122.892L273.053 137.254C273.222 138.457 274.334 139.296 275.537 139.127ZM271.514 110.404C272.717 110.236 273.556 109.124 273.387 107.92L271.375 93.5587C271.207 92.3554 270.095 91.5166 268.892 91.6852C267.688 91.8537 266.849 92.9658 267.018 94.1691L269.03 108.531C269.198 109.734 270.31 110.573 271.514 110.404ZM267.49 81.6811C268.693 81.5125 269.532 80.4004 269.364 79.1972L268.358 72.0164C268.189 70.8131 267.077 69.9743 265.874 70.1428C264.671 70.3114 263.832 71.4235 264 72.6268L265.006 79.8075C265.175 81.0108 266.287 81.8496 267.49 81.6811ZM265.153 178.742C265.692 177.653 265.246 176.333 264.157 175.795L251.43 169.496C250.341 168.957 249.021 169.403 248.482 170.492C247.943 171.581 248.389 172.901 249.478 173.44L262.206 179.738C263.295 180.277 264.614 179.831 265.153 178.742ZM239.698 166.145C240.237 165.056 239.791 163.736 238.702 163.197L225.974 156.899C224.885 156.36 223.566 156.806 223.027 157.895C222.488 158.984 222.934 160.304 224.023 160.842L236.75 167.141C237.839 167.68 239.159 167.234 239.698 166.145ZM214.243 153.548C214.782 152.459 214.336 151.139 213.247 150.6L200.519 144.302C199.43 143.763 198.11 144.209 197.572 145.298C197.033 146.387 197.479 147.706 198.568 148.245L211.295 154.544C212.384 155.083 213.704 154.637 214.243 153.548ZM188.787 140.951C189.326 139.862 188.88 138.542 187.791 138.003L181.428 134.854C180.339 134.315 179.019 134.761 178.48 135.85C177.941 136.939 178.387 138.259 179.476 138.797L185.84 141.947C186.929 142.486 188.249 142.04 188.787 140.951Z" fill="#1B1F21"/>
<path d="M147.723 135.101L28.0528 241.033L3.55231 66.1274L147.723 135.101Z" fill="#FE6D44"/>
<path d="M147.723 135.101L28.0528 241.033L3.55231 66.1274L147.723 135.101Z" fill="#FCFAF9" fill-opacity="0.12"/>
<path fill-rule="evenodd" clip-rule="evenodd" d="M14.3168 80.4046C15.5199 80.2343 16.6331 81.0715 16.8034 82.2745L17.7865 89.2201C17.9567 90.4231 17.1195 91.5364 15.9165 91.7067C14.7134 91.877 13.6002 91.0397 13.4299 89.8367L12.4468 82.8912C12.2766 81.6881 13.1138 80.5748 14.3168 80.4046ZM17.2659 101.241C18.469 101.071 19.5823 101.908 19.7525 103.111L21.7186 117.002C21.8889 118.205 21.0517 119.319 19.8486 119.489C18.6456 119.659 17.5323 118.822 17.362 117.619L15.396 103.728C15.2257 102.525 16.0629 101.411 17.2659 101.241ZM21.1981 129.023C22.4011 128.853 23.5144 129.69 23.6847 130.893L25.6508 144.785C25.8211 145.988 24.9838 147.101 23.7808 147.271C22.5778 147.441 21.4645 146.604 21.2942 145.401L19.3281 131.51C19.1579 130.307 19.9951 129.194 21.1981 129.023ZM25.1303 156.806C26.3333 156.635 27.4466 157.473 27.6169 158.676L29.583 172.567C29.7532 173.77 28.916 174.883 27.713 175.053C26.5099 175.224 25.3966 174.386 25.2264 173.183L23.2603 159.292C23.09 158.089 23.9272 156.976 25.1303 156.806ZM29.0624 184.588C30.2655 184.418 31.3788 185.255 31.549 186.458L33.5151 200.349C33.6854 201.552 32.8482 202.665 31.6451 202.836C30.4421 203.006 29.3288 202.169 29.1585 200.966L27.1925 187.074C27.0222 185.871 27.8594 184.758 29.0624 184.588ZM32.9946 212.37C34.1976 212.2 35.3109 213.037 35.4812 214.24L35.8817 217.07L38.0596 215.089C38.9585 214.272 40.3499 214.338 41.1673 215.237C41.9847 216.136 41.9185 217.528 41.0195 218.345L35.7659 223.122C35.1629 223.67 34.3062 223.84 33.5395 223.563C32.7729 223.287 32.2219 222.609 32.1077 221.802L31.1246 214.857C30.9544 213.654 31.7916 212.54 32.9946 212.37ZM48.4189 208.644C47.6016 207.745 47.6677 206.354 48.5667 205.536L59.0739 195.983C59.9729 195.166 61.3643 195.232 62.1816 196.131C62.999 197.03 62.9329 198.421 62.0339 199.239L51.5267 208.792C50.6277 209.609 49.2363 209.543 48.4189 208.644ZM69.4333 189.538C68.6159 188.639 68.6821 187.247 69.5811 186.43L80.0882 176.877C80.9872 176.059 82.3786 176.125 83.196 177.024C84.0134 177.923 83.9472 179.315 83.0482 180.132L72.541 189.685C71.642 190.503 70.2506 190.437 69.4333 189.538ZM90.4476 170.431C89.6302 169.532 89.6964 168.141 90.5954 167.323L101.103 157.77C102.002 156.953 103.393 157.019 104.21 157.918C105.028 158.817 104.962 160.208 104.063 161.026L93.5554 170.579C92.6564 171.396 91.265 171.33 90.4476 170.431ZM111.462 151.325C110.645 150.426 110.711 149.034 111.61 148.217L116.863 143.44C117.762 142.623 119.154 142.689 119.971 143.588C120.788 144.487 120.722 145.878 119.823 146.696L114.57 151.472C113.671 152.29 112.279 152.224 111.462 151.325Z" fill="#1B1F21"/>
<path d="M151.163 154.265L3.55233 66.1258L268.875 28.9598L151.163 154.265Z" fill="#FE6D44"/>
<path d="M151.163 154.265L3.55233 66.1258L268.875 28.9598L151.163 154.265Z" fill="#FCFAF9" fill-opacity="0.25"/>
<path fill-rule="evenodd" clip-rule="evenodd" d="M256.89 26.8817C257.896 27.827 257.946 29.4092 257 30.4155L252.754 34.9354C251.809 35.9417 250.227 35.9912 249.221 35.0458C248.214 34.1005 248.165 32.5183 249.11 31.512L253.356 26.9921C254.301 25.9858 255.884 25.9363 256.89 26.8817ZM14.5052 60.8345C15.213 59.649 16.7478 59.2619 17.9333 59.9697L23.2578 63.149C24.4433 63.8568 24.8304 65.3917 24.1226 66.5771C23.4148 67.7626 21.8799 68.1498 20.6945 67.4419L15.37 64.2626C14.1845 63.5548 13.7973 62.02 14.5052 60.8345ZM243.499 41.1368C244.505 42.0821 244.554 43.6642 243.609 44.6706L235.117 53.7104C234.172 54.7167 232.59 54.7661 231.583 53.8208C230.577 52.8754 230.527 51.2933 231.473 50.287L239.965 41.2472C240.91 40.2409 242.492 40.1914 243.499 41.1368ZM31.2978 70.8615C32.0057 69.676 33.5405 69.2888 34.7259 69.9967L45.3749 76.3552C46.5604 77.0631 46.9476 78.5979 46.2397 79.7834C45.5319 80.9688 43.9971 81.356 42.8116 80.6482L32.1626 74.2896C30.9772 73.5818 30.59 72.0469 31.2978 70.8615ZM225.861 59.9117C226.868 60.8571 226.917 62.4392 225.972 63.4455L217.48 72.4853C216.534 73.4917 214.952 73.5411 213.946 72.5958C212.94 71.6504 212.89 70.0683 213.836 69.0619L222.328 60.0221C223.273 59.0158 224.855 58.9664 225.861 59.9117ZM53.415 84.0677C54.1228 82.8823 55.6576 82.4951 56.8431 83.2029L67.4921 89.5615C68.6776 90.2693 69.0647 91.8041 68.3569 92.9896C67.6491 94.1751 66.1142 94.5623 64.9288 93.8544L54.2798 87.4958C53.0943 86.788 52.7071 85.2532 53.415 84.0677ZM208.224 78.6867C209.23 79.632 209.28 81.2142 208.335 82.2205L199.842 91.2603C198.897 92.2666 197.315 92.3161 196.309 91.3707C195.302 90.4254 195.253 88.8432 196.198 87.8369L204.69 78.7971C205.636 77.7908 207.218 77.7414 208.224 78.6867ZM75.5321 97.274C76.24 96.0885 77.7748 95.7013 78.9603 96.4092L89.6093 102.768C90.7947 103.476 91.1819 105.01 90.4741 106.196C89.7662 107.381 88.2314 107.768 87.0459 107.061L76.3969 100.702C75.2115 99.9942 74.8243 98.4594 75.5321 97.274ZM190.587 97.4617C191.593 98.407 191.643 99.9892 190.697 100.995L182.205 110.035C181.26 111.042 179.678 111.091 178.671 110.146C177.665 109.2 177.616 107.618 178.561 106.612L187.053 97.5721C187.998 96.5658 189.58 96.5163 190.587 97.4617ZM97.6493 110.48C98.3571 109.295 99.8919 108.908 101.077 109.615L111.726 115.974C112.912 116.682 113.299 118.217 112.591 119.402C111.883 120.588 110.349 120.975 109.163 120.267L98.5141 113.908C97.3286 113.2 96.9414 111.666 97.6493 110.48ZM172.95 116.237C173.956 117.182 174.005 118.764 173.06 119.77L164.568 128.81C163.623 129.817 162.04 129.866 161.034 128.921C160.028 127.975 159.978 126.393 160.924 125.387L169.416 116.347C170.361 115.341 171.943 115.291 172.95 116.237ZM119.766 123.686C120.474 122.501 122.009 122.114 123.195 122.822L133.844 129.18C135.029 129.888 135.416 131.423 134.708 132.608C134.001 133.794 132.466 134.181 131.28 133.473L120.631 127.115C119.446 126.407 119.059 124.872 119.766 123.686ZM141.884 136.893C142.591 135.707 144.126 135.32 145.312 136.028L148.909 138.176L151.778 135.122C152.724 134.116 154.306 134.066 155.312 135.012C156.319 135.957 156.368 137.539 155.423 138.545L151.177 143.065C150.373 143.921 149.081 144.102 148.073 143.5L142.748 140.321C141.563 139.613 141.176 138.078 141.884 136.893Z" fill="#1B1F21"/>
<circle cx="265.07" cy="34.4188" r="30.4847" transform="rotate(-7.974 265.07 34.4188)" fill="#57ACBC"/>
<path d="M277.111 39.0712L277.93 44.9193L257.804 47.7386L256.985 41.8905L263.306 41.005L261.651 29.1949L255.33 30.0803L254.713 25.6752C256.431 25.3313 258.308 24.6167 260.344 23.5313C262.376 22.4206 264.121 21.234 265.579 19.9715L268.177 19.6075L271.023 39.924L277.111 39.0712Z" fill="#FFFFFE"/>
</svg>
