<svg width="112" height="92" viewBox="0 0 112 92" fill="none" xmlns="http://www.w3.org/2000/svg">
<g opacity="0.62" filter="url(#filter0_f_2001_2141)">
<path d="M57.11 40.0193L7.99999 61.6953L88.8024 83.3463L57.11 40.0193Z" fill="#FE6D44"/>
<path fill-rule="evenodd" clip-rule="evenodd" d="M82.901 78.2801L80.9956 77.7696C80.617 77.6681 80.2278 77.8928 80.1264 78.2715C80.0249 78.6501 80.2496 79.0393 80.6282 79.1407L82.5336 79.6513C82.9122 79.7527 83.3014 79.528 83.4029 79.1494C83.5043 78.7708 83.2796 78.3816 82.901 78.2801ZM75.2795 76.238L71.4688 75.2169C71.0902 75.1154 70.701 75.3401 70.5995 75.7187C70.4981 76.0974 70.7228 76.4866 71.1014 76.588L74.9121 77.6091C75.2908 77.7106 75.68 77.4859 75.7814 77.1072C75.8829 76.7286 75.6582 76.3394 75.2795 76.238ZM65.7527 73.6852L61.942 72.6642C61.5633 72.5627 61.1742 72.7874 61.0727 73.166C60.9712 73.5447 61.1959 73.9339 61.5746 74.0353L65.3853 75.0564C65.7639 75.1579 66.1531 74.9332 66.2546 74.5545C66.356 74.1759 66.1313 73.7867 65.7527 73.6852ZM56.2259 71.1325L52.4151 70.1115C52.0365 70.01 51.6473 70.2347 51.5459 70.6133C51.4444 70.992 51.6691 71.3812 52.0477 71.4826L55.8585 72.5037C56.2371 72.6051 56.6263 72.3804 56.7277 72.0018C56.8292 71.6232 56.6045 71.234 56.2259 71.1325ZM46.699 68.5798L42.8883 67.5588C42.5097 67.4573 42.1205 67.682 42.019 68.0606C41.9176 68.4393 42.1423 68.8284 42.5209 68.9299L46.3317 69.951C46.7103 70.0524 47.0995 69.8277 47.2009 69.4491C47.3024 69.0705 47.0777 68.6813 46.699 68.5798ZM37.1722 66.0271L33.3615 65.006C32.9829 64.9046 32.5937 65.1293 32.4922 65.5079C32.3908 65.8866 32.6155 66.2757 32.9941 66.3772L36.8048 67.3983C37.1835 67.4997 37.5726 67.275 37.6741 66.8964C37.7756 66.5178 37.5509 66.1286 37.1722 66.0271ZM27.6454 63.4744L23.8347 62.4533C23.456 62.3519 23.0668 62.5766 22.9654 62.9552C22.8639 63.3338 23.0886 63.723 23.4673 63.8245L27.278 64.8456C27.6566 64.947 28.0458 64.7223 28.1473 64.3437C28.2487 63.9651 28.024 63.5759 27.6454 63.4744ZM18.1186 60.9217L16.2132 60.4112C15.8346 60.3097 15.4454 60.5344 15.3439 60.9131C15.2425 61.2917 15.4672 61.6809 15.8458 61.7823L17.7512 62.2929C18.1298 62.3943 18.519 62.1696 18.6204 61.791C18.7219 61.4124 18.4972 61.0232 18.1186 60.9217Z" fill="#1B1F21"/>
<path d="M55.7633 45.9475L88.8025 83.3457L103.075 30.0793L55.7633 45.9475Z" fill="#FE6D44"/>
<path d="M55.7633 45.9475L88.8025 83.3457L103.075 30.0793L55.7633 45.9475Z" fill="#FCFAF9" fill-opacity="0.12"/>
<path fill-rule="evenodd" clip-rule="evenodd" d="M87.798 77.8979C88.0545 77.8394 88.2576 77.6438 88.3257 77.3896L88.9117 75.2028C89.0132 74.8241 88.7885 74.4349 88.4098 74.3335C88.0312 74.232 87.642 74.4567 87.5406 74.8354L87.3023 75.7246L86.7327 75.0622C86.4771 74.765 86.0289 74.7313 85.7317 74.9869C85.4346 75.2425 85.4008 75.6906 85.6564 75.9878L87.102 77.6687C87.2736 77.8682 87.5415 77.9564 87.798 77.8979ZM89.2144 71.3309C89.593 71.4324 89.9822 71.2077 90.0836 70.829L91.2556 66.4553C91.357 66.0767 91.1323 65.6875 90.7537 65.586C90.3751 65.4846 89.9859 65.7093 89.8844 66.0879L88.7125 70.4616C88.611 70.8403 88.8357 71.2295 89.2144 71.3309ZM91.5582 62.5835C91.9369 62.6849 92.3261 62.4602 92.4275 62.0816L93.5995 57.7078C93.7009 57.3292 93.4762 56.94 93.0976 56.8386C92.7189 56.7371 92.3298 56.9618 92.2283 57.3404L91.0564 61.7142C90.9549 62.0928 91.1796 62.482 91.5582 62.5835ZM93.9021 53.836C94.2807 53.9375 94.6699 53.7128 94.7714 53.3341L95.9433 48.9604C96.0448 48.5818 95.8201 48.1926 95.4414 48.0911C95.0628 47.9897 94.6736 48.2144 94.5722 48.593L93.4002 52.9667C93.2988 53.3454 93.5235 53.7345 93.9021 53.836ZM96.246 45.0885C96.6246 45.19 97.0138 44.9653 97.1153 44.5867L97.7012 42.3998C97.8027 42.0212 97.578 41.632 97.1994 41.5305C96.8207 41.4291 96.4315 41.6538 96.3301 42.0324L95.7441 44.2193C95.6427 44.5979 95.8674 44.9871 96.246 45.0885ZM83.7661 72.7014C84.0633 72.4458 84.097 71.9976 83.8414 71.7004L80.9502 68.3386C80.6946 68.0415 80.2465 68.0077 79.9493 68.2633C79.6521 68.5189 79.6184 68.9671 79.8739 69.2642L82.7652 72.626C83.0208 72.9232 83.4689 72.957 83.7661 72.7014ZM77.9836 65.9778C78.2808 65.7222 78.3145 65.2741 78.059 64.9769L75.1677 61.6151C74.9121 61.3179 74.464 61.2842 74.1668 61.5397C73.8696 61.7953 73.8359 62.2435 74.0915 62.5407L76.9827 65.9025C77.2383 66.1997 77.6864 66.2334 77.9836 65.9778ZM72.2012 59.2542C72.4983 58.9986 72.5321 58.5505 72.2765 58.2533L69.3852 54.8915C69.1296 54.5943 68.6815 54.5606 68.3843 54.8162C68.0871 55.0718 68.0534 55.5199 68.309 55.8171L71.2002 59.1789C71.4558 59.4761 71.904 59.5098 72.2012 59.2542ZM66.4187 52.5306C66.7159 52.275 66.7496 51.8269 66.494 51.5297L65.0484 49.8488C64.7928 49.5516 64.3446 49.5179 64.0475 49.7735C63.7503 50.0291 63.7165 50.4772 63.9721 50.7744L65.4178 52.4553C65.6733 52.7525 66.1215 52.7862 66.4187 52.5306Z" fill="#1B1F21"/>
<path d="M55.3118 45.8271L7.99999 61.6953L22.2727 8.42892L55.3118 45.8271Z" fill="#FE6D44"/>
<path d="M55.3118 45.8271L7.99999 61.6953L22.2727 8.42892L55.3118 45.8271Z" fill="#FCFAF9" fill-opacity="0.12"/>
<path fill-rule="evenodd" clip-rule="evenodd" d="M23.633 13.8226C24.0118 13.9235 24.237 14.3123 24.1361 14.6911L23.5723 16.8076C23.4713 17.1864 23.0825 17.4116 22.7037 17.3107C22.3249 17.2098 22.0997 16.8209 22.2006 16.4421L22.7644 14.3257C22.8654 13.9469 23.2542 13.7217 23.633 13.8226ZM21.9414 20.1719C22.3202 20.2729 22.5454 20.6617 22.4445 21.0405L21.3168 25.2734C21.2159 25.6522 20.827 25.8774 20.4483 25.7765C20.0695 25.6756 19.8442 25.2868 19.9451 24.908L21.0729 20.6751C21.1738 20.2963 21.5626 20.071 21.9414 20.1719ZM19.686 28.6378C20.0647 28.7387 20.29 29.1276 20.1891 29.5063L19.0614 33.7392C18.9604 34.118 18.5716 34.3433 18.1928 34.2424C17.814 34.1415 17.5888 33.7526 17.6897 33.3738L18.8174 29.1409C18.9183 28.7621 19.3072 28.5369 19.686 28.6378ZM17.4305 37.1036C17.8093 37.2045 18.0345 37.5934 17.9336 37.9722L16.8059 42.2051C16.705 42.5839 16.3161 42.8091 15.9373 42.7082C15.5586 42.6073 15.3333 42.2184 15.4342 41.8396L16.562 37.6067C16.6629 37.2279 17.0517 37.0027 17.4305 37.1036ZM15.1751 45.5694C15.5538 45.6704 15.7791 46.0592 15.6782 46.438L14.5505 50.6709C14.4495 51.0497 14.0607 51.2749 13.6819 51.174C13.3031 51.0731 13.0779 50.6843 13.1788 50.3055L14.3065 46.0726C14.4074 45.6938 14.7963 45.4685 15.1751 45.5694ZM12.9196 54.0353C13.2984 54.1362 13.5236 54.5251 13.4227 54.9038L13.2041 55.7244L14.0308 55.4348C14.4007 55.3052 14.8057 55.5001 14.9353 55.8701C15.0649 56.24 14.87 56.645 14.5 56.7745L12.4077 57.5074C12.1595 57.5943 11.8836 57.537 11.6907 57.3583C11.4978 57.1796 11.4195 56.9089 11.4872 56.6548L12.0511 54.5384C12.152 54.1596 12.5408 53.9344 12.9196 54.0353ZM17.7803 54.8735C17.6508 54.5036 17.8456 54.0986 18.2156 53.969L22.4004 52.5033C22.7703 52.3737 23.1753 52.5686 23.3048 52.9385C23.4344 53.3085 23.2396 53.7134 22.8696 53.843L18.6848 55.3088C18.3149 55.4383 17.9099 55.2435 17.7803 54.8735ZM26.1499 51.942C26.0203 51.572 26.2152 51.1671 26.5851 51.0375L30.7699 49.5717C31.1399 49.4421 31.5448 49.637 31.6744 50.007C31.804 50.3769 31.6091 50.7819 31.2392 50.9114L27.0544 52.3772C26.6844 52.5068 26.2795 52.3119 26.1499 51.942ZM34.5195 49.0104C34.3899 48.6405 34.5847 48.2355 34.9547 48.1059L39.1395 46.6402C39.5094 46.5106 39.9144 46.7055 40.044 47.0754C40.1735 47.4454 39.9787 47.8503 39.6087 47.9799L35.424 49.4457C35.054 49.5752 34.649 49.3804 34.5195 49.0104ZM42.889 46.0789C42.7594 45.7089 42.9543 45.304 43.3243 45.1744L45.4167 44.4415C45.7866 44.3119 46.1916 44.5068 46.3211 44.8767C46.4507 45.2467 46.2559 45.6516 45.8859 45.7812L43.7935 46.5141C43.4236 46.6437 43.0186 46.4488 42.889 46.0789Z" fill="#1B1F21"/>
<path d="M53.9652 51.7557L22.2727 8.42872L103.075 30.0797L53.9652 51.7557Z" fill="#FE6D44"/>
<path d="M53.9652 51.7557L22.2727 8.42872L103.075 30.0797L53.9652 51.7557Z" fill="#FCFAF9" fill-opacity="0.25"/>
<path fill-rule="evenodd" clip-rule="evenodd" d="M99.9067 28.011C100.087 28.4185 99.9021 28.8947 99.4945 29.0746L97.7231 29.8564C97.3156 30.0363 96.8394 29.8518 96.6595 29.4442C96.4797 29.0367 96.6642 28.5606 97.0717 28.3807L98.8432 27.5988C99.2507 27.4189 99.7269 27.6035 99.9067 28.011ZM26.0509 8.22139C26.4104 7.95841 26.9151 8.03668 27.178 8.3962L28.3212 9.95906C28.5842 10.3186 28.5059 10.8232 28.1464 11.0862C27.7869 11.3492 27.2822 11.2709 27.0193 10.9114L25.8761 9.34855C25.6131 8.98902 25.6914 8.48438 26.0509 8.22139ZM94.3198 30.4769C94.4997 30.8844 94.3152 31.3606 93.9076 31.5405L90.3647 33.1042C89.9572 33.2841 89.4811 33.0996 89.3012 32.6921C89.1213 32.2845 89.3059 31.8084 89.7134 31.6285L93.2563 30.0647C93.6638 29.8849 94.14 30.0694 94.3198 30.4769ZM29.6563 13.1504C30.0158 12.8874 30.5205 12.9657 30.7835 13.3252L33.0698 16.4509C33.3328 16.8105 33.2546 17.3151 32.895 17.5781C32.5355 17.8411 32.0309 17.7628 31.7679 17.4033L29.4815 14.2776C29.2185 13.918 29.2968 13.4134 29.6563 13.1504ZM86.9615 33.7247C87.1414 34.1323 86.9568 34.6084 86.5493 34.7883L83.0064 36.3521C82.5989 36.5319 82.1227 36.3474 81.9428 35.9399C81.763 35.5324 81.9475 35.0562 82.355 34.8763L85.8979 33.3126C86.3055 33.1327 86.7816 33.3172 86.9615 33.7247ZM34.4049 19.6423C34.7645 19.3793 35.2691 19.4576 35.5321 19.8171L37.8185 22.9428C38.0814 23.3023 38.0032 23.807 37.6436 24.0699C37.2841 24.3329 36.7795 24.2547 36.5165 23.8951L34.2301 20.7694C33.9671 20.4099 34.0454 19.9053 34.4049 19.6423ZM79.6031 36.9726C79.783 37.3801 79.5985 37.8562 79.1909 38.0361L75.648 39.5999C75.2405 39.7797 74.7644 39.5952 74.5845 39.1877C74.4046 38.7802 74.5892 38.304 74.9967 38.1241L78.5396 36.5604C78.9471 36.3805 79.4233 36.5651 79.6031 36.9726ZM39.1535 26.1341C39.5131 25.8712 40.0177 25.9494 40.2807 26.3089L42.5671 29.4347C42.83 29.7942 42.7518 30.2988 42.3923 30.5618C42.0327 30.8248 41.5281 30.7465 41.2651 30.387L38.9787 27.2613C38.7158 26.9018 38.794 26.3971 39.1535 26.1341ZM72.2448 40.2204C72.4246 40.6279 72.2401 41.1041 71.8326 41.2839L68.2897 42.8477C67.8822 43.0276 67.406 42.843 67.2261 42.4355C67.0463 42.028 67.2308 41.5518 67.6383 41.372L71.1812 39.8082C71.5887 39.6283 72.0649 39.8129 72.2448 40.2204ZM43.9022 32.626C44.2617 32.363 44.7663 32.4413 45.0293 32.8008L47.3157 35.9265C47.5787 36.286 47.5004 36.7907 47.1409 37.0537C46.7813 37.3167 46.2767 37.2384 46.0137 36.8789L43.7274 33.7532C43.4644 33.3936 43.5426 32.889 43.9022 32.626ZM64.8864 43.4682C65.0663 43.8757 64.8817 44.3519 64.4742 44.5317L60.9313 46.0955C60.5238 46.2754 60.0476 46.0908 59.8678 45.6833C59.6879 45.2758 59.8725 44.7996 60.28 44.6198L63.8229 43.056C64.2304 42.8761 64.7066 43.0607 64.8864 43.4682ZM48.6508 39.1179C49.0103 38.8549 49.5149 38.9332 49.7779 39.2927L52.0643 42.4184C52.3273 42.7779 52.249 43.2826 51.8895 43.5455C51.53 43.8085 51.0253 43.7303 50.7623 43.3707L48.476 40.245C48.213 39.8855 48.2912 39.3809 48.6508 39.1179ZM53.3994 45.6097C53.7589 45.3468 54.2636 45.425 54.5265 45.7845L55.2867 46.8237L56.4645 46.3038C56.872 46.124 57.3482 46.3085 57.5281 46.716C57.7079 47.1235 57.5234 47.5997 57.1159 47.7796L55.3444 48.5614C54.9978 48.7144 54.5914 48.6055 54.3678 48.2997L53.2246 46.7369C52.9616 46.3774 53.0399 45.8727 53.3994 45.6097Z" fill="#1B1F21"/>
</g>
<defs>
<filter id="filter0_f_2001_2141" x="-1.52588e-05" y="0.0656738" width="111.075" height="91.2805" filterUnits="userSpaceOnUse" color-interpolation-filters="sRGB">
<feFlood flood-opacity="0" result="BackgroundImageFix"/>
<feBlend mode="normal" in="SourceGraphic" in2="BackgroundImageFix" result="shape"/>
<feGaussianBlur stdDeviation="4" result="effect1_foregroundBlur_2001_2141"/>
</filter>
</defs>
</svg>
