<svg width="32" height="32" viewBox="0 0 32 32" fill="none" xmlns="http://www.w3.org/2000/svg">
<path d="M2.34315 2.34315C0 4.68629 0 8.45753 0 16C0 23.5425 0 27.3137 2.34315 29.6569C4.65215 31.9659 8.34792 31.9995 15.6727 32C15.618 31.9993 15.5739 31.9548 15.5739 31.9V19.9C15.5739 19.8448 15.5291 19.8 15.4739 19.8H12.1C12.0448 19.8 12 19.7553 12 19.7V15.5075C12 15.4522 12.0448 15.4075 12.1 15.4075H15.4739C15.5291 15.4075 15.5739 15.3627 15.5739 15.3075V11.6557C15.5739 8.70743 17.685 6 22.5494 6C24.2315 6 25.5393 6.12432 25.8852 6.1606C25.9367 6.166 25.9742 6.21013 25.9728 6.26191L25.8633 10.1743C25.8618 10.2287 25.8174 10.272 25.7629 10.2715C25.4073 10.2687 24.1297 10.2593 22.7545 10.2593C21.0003 10.2593 20.7193 10.989 20.7193 12.2001V15.3075C20.7193 15.3627 20.764 15.4075 20.8193 15.4075H25.8946C25.9519 15.4075 25.9975 15.4555 25.9945 15.5127L25.7752 19.7053C25.7724 19.7584 25.7285 19.8 25.6753 19.8H20.8193C20.764 19.8 20.7193 19.8448 20.7193 19.9V31.9C20.7193 31.9274 20.7082 31.9522 20.6904 31.9703C25.2234 31.8726 27.86 31.4537 29.6569 29.6569C32 27.3137 32 23.5425 32 16C32 8.45753 32 4.68629 29.6569 2.34315C27.3137 0 23.5425 0 16 0C8.45753 0 4.68629 0 2.34315 2.34315Z" fill="#757778"/>
</svg>
