<svg width="32" height="32" viewBox="0 0 32 32" fill="none" xmlns="http://www.w3.org/2000/svg">
<path fill-rule="evenodd" clip-rule="evenodd" d="M2.34315 2.34315C0 4.68629 0 8.45753 0 16C0 23.5425 0 27.3137 2.34315 29.6569C4.68629 32 8.45753 32 16 32C23.5425 32 27.3137 32 29.6569 29.6569C32 27.3137 32 23.5425 32 16C32 8.45753 32 4.68629 29.6569 2.34315C27.3137 0 23.5425 0 16 0C8.45753 0 4.68629 0 2.34315 2.34315ZM10.7672 26.4C10.7672 26.4552 10.7224 26.5 10.6672 26.5H6.36559C6.31036 26.5 6.26559 26.4552 6.26559 26.4V13.106C6.26559 13.0508 6.31036 13.006 6.36559 13.006H10.6672C10.7224 13.006 10.7672 13.0508 10.7672 13.106V26.4ZM11.0638 8.8315C11.0638 10.1264 10.0867 11.1626 8.51696 11.1626H8.48757C6.97687 11.1626 6 10.1264 6 8.8315C6 7.50744 7.00694 6.5 8.54675 6.5C10.0868 6.5 11.0346 7.50742 11.0638 8.8315ZM13.2589 26.4998C13.2587 26.4998 13.2588 26.4999 13.2589 26.4998C13.2592 26.435 13.3153 14.7945 13.2626 13.1039C13.2608 13.0469 13.3066 13.0058 13.3636 13.0058H17.6604C17.7157 13.0058 17.7604 13.0505 17.7604 13.1058V14.9164C18.3587 13.9969 19.4295 12.6892 21.8174 12.6892C24.7792 12.6892 27 14.6178 27 18.7626V26.3999C27 26.4551 26.9552 26.4999 26.9 26.4999H22.5987C22.5435 26.4999 22.4987 26.4551 22.4987 26.3999V19.2809C22.4987 17.4669 21.847 16.2295 20.2181 16.2295C18.9746 16.2295 18.2339 17.0641 17.9085 17.8698C17.7896 18.1581 17.7603 18.561 17.7603 18.9643V26.4C17.7603 26.4552 17.7156 26.5 17.6603 26.5L13.2589 26.4998Z" fill="#757778"/>
</svg>
