<svg width="32" height="32" viewBox="0 0 32 32" fill="none" xmlns="http://www.w3.org/2000/svg">
<path d="M17.437 21.42C16.2462 21.7858 14.9675 21.7203 13.819 21.2345C13.0855 20.9254 12.4285 20.455 11.8954 19.8569C11.3623 19.2589 10.9663 18.5482 10.736 17.776C10.5056 17.0038 10.4466 16.1893 10.5632 15.3912C10.6799 14.593 10.9692 13.8311 11.4104 13.1602C11.8516 12.4893 12.4336 11.9262 13.1147 11.5113C13.7958 11.0964 14.559 10.8402 15.3492 10.761C16.1395 10.6818 16.9372 10.7816 17.6849 11.0533C18.4326 11.3249 19.1118 11.7617 19.6735 12.332C20.5546 13.2243 21.1035 14.3998 21.2264 15.6576C21.3494 16.9154 21.0388 18.1776 20.3476 19.2286C19.6565 20.2796 18.6277 21.0541 17.437 21.42Z" fill="#757778"/>
<path fill-rule="evenodd" clip-rule="evenodd" d="M2.34315 2.34315C0 4.68629 0 8.45753 0 16C0 23.5425 0 27.3137 2.34315 29.6569C4.68629 32 8.45753 32 16 32C23.5425 32 27.3137 32 29.6569 29.6569C32 27.3137 32 23.5425 32 16C32 8.45753 32 4.68629 29.6569 2.34315C27.3137 0 23.5425 0 16 0C8.45753 0 4.68629 0 2.34315 2.34315ZM12.7086 8.42271C11.7046 8.84529 10.7923 9.46467 10.0239 10.2455C8.47196 11.8224 7.6001 13.9612 7.6001 16.1914C7.6001 18.4215 8.47196 20.5603 10.0239 22.1372C11.5758 23.7142 13.6806 24.6001 15.8754 24.6001C18.0701 24.6001 20.175 23.7142 21.7269 22.1372C22.4953 21.3564 23.1049 20.4294 23.5208 19.4092C23.9366 18.3891 24.1507 17.2956 24.1507 16.1914C24.1507 15.0871 23.9366 13.9937 23.5208 12.9735C23.1049 11.9533 22.4953 11.0263 21.7269 10.2455C20.9585 9.46467 20.0462 8.84529 19.0422 8.42271C18.0382 8.00013 16.9621 7.78263 15.8754 7.78263C14.7887 7.78263 13.7126 8.00013 12.7086 8.42271ZM26.4343 8.38941C26.3289 8.63288 26.1765 8.85238 25.986 9.0349C25.6157 9.38988 25.1238 9.58423 24.6147 9.57669C24.1057 9.56915 23.6195 9.36031 23.2595 8.99451C22.8996 8.62871 22.694 8.13475 22.6866 7.61748C22.6792 7.10022 22.8705 6.60038 23.2198 6.22407C23.3994 6.03058 23.6154 5.87567 23.855 5.76853C24.0947 5.66139 24.353 5.60419 24.6147 5.60031C24.8765 5.59643 25.1363 5.64596 25.3789 5.74596C25.6215 5.84596 25.8418 5.9944 26.027 6.18249C26.2121 6.37058 26.3581 6.59449 26.4566 6.84098C26.555 7.08747 26.6037 7.35151 26.5999 7.61748C26.5961 7.88346 26.5398 8.14595 26.4343 8.38941Z" fill="#757778"/>
</svg>
