<svg viewBox="0 0 104 104" fill="none" xmlns="http://www.w3.org/2000/svg">
<path d="M104 52C104 80.7188 80.7188 104 52 104C23.2812 104 0 80.7188 0 52C0 23.2812 23.2812 0 52 0C80.7188 0 104 23.2812 104 52ZM28.82 52C28.82 64.8019 39.1981 75.18 52 75.18C64.8019 75.18 75.18 64.8019 75.18 52C75.18 39.1981 64.8019 28.82 52 28.82C39.1981 28.82 28.82 39.1981 28.82 52Z" fill="#ACD6DE"/>
<path d="M93.6007 59.4409C95.0954 59.2 96.0137 58.1559 96.1793 56.4433C96.3516 54.6612 95.4364 53.1361 93.9555 52.9928C92.0466 52.8082 91.5462 54.36 91.1146 55.6848C90.809 56.6714 90.5515 57.5225 89.7301 57.443C88.8856 57.3613 88.5952 56.6208 88.6824 55.7182C88.7786 54.723 89.2854 54.0712 90.3848 53.9323L90.0914 52.257C88.465 52.5319 87.46 53.626 87.2721 55.5701C87.0853 57.5026 87.9863 58.9329 89.6291 59.0918C91.4802 59.2708 92.0582 57.7616 92.4772 56.4473C92.807 55.4513 93.0667 54.5771 93.865 54.6543C94.536 54.7192 94.8745 55.3243 94.7805 56.2963C94.6944 57.1873 94.1421 57.7062 93.3386 57.8037L93.6007 59.4409Z" fill="#1B1F21"/>
<path d="M91.2983 60.4862C88.8563 59.6526 86.4738 60.7679 85.6404 63.2105C84.8069 65.6531 86.0105 67.9925 88.4526 68.8262C90.9056 69.6635 93.2771 68.5444 94.1105 66.1019C94.944 63.6593 93.7514 61.3236 91.2983 60.4862ZM88.9894 67.2528C87.2734 66.667 86.5043 65.2497 87.0374 63.6874C87.5705 62.125 89.0454 61.4738 90.7615 62.0596C92.4775 62.6453 93.2466 64.0626 92.7135 65.625C92.1804 67.1873 90.7055 67.8386 88.9894 67.2528Z" fill="#1B1F21"/>
<path d="M83.5453 68.6089L82.6992 69.9719L85.8097 71.9037L84.2892 74.3531L85.5136 75.1135L87.0342 72.6641L88.8807 73.8109L86.8206 77.1294L88.0451 77.8899L90.9513 73.2083L83.5453 68.6089Z" fill="#1B1F21"/>
<path d="M78.8277 75.3397L77.7397 76.5186L83.0606 81.4313L81.334 83.3022L82.4187 84.3036L86.9519 79.3916L85.8672 78.3902L84.1486 80.2525L78.8277 75.3397Z" fill="#1B1F21"/>
<path d="M75.2645 86.2583L74.7556 81.9992L79.575 86.7907L80.9187 85.8935L74.6187 79.6165L73.2073 80.5589L73.6319 84.1055L70.4812 82.3793L69.0795 83.3153L72.4602 91.5417L73.7845 90.6574L71.1918 84.3651L74.9842 86.4455L75.2645 86.2583Z" fill="#1B1F21"/>
<path d="M67.7039 84.1392L66.1658 84.6707L66.1152 87.4434L63.127 88.4761L61.3759 86.326L59.772 86.8802L65.7607 94.0357L67.4086 93.4663L67.7039 84.1392ZM66.0839 88.9548L66.0217 92.0144L64.0844 89.6458L66.0839 88.9548Z" fill="#1B1F21"/>
<path d="M59.1722 86.8995L57.5775 87.0724L57.9507 90.5167L56.564 90.667L53.9838 87.4619L52.1695 87.6585L54.9801 91.1544C54.0469 91.6063 53.4862 92.474 53.6115 93.6298C53.783 95.2132 55.0731 96.1141 56.7487 95.9325L60.1113 95.5681L59.1722 86.8995ZM56.6165 94.4968C55.8307 94.582 55.2825 94.162 55.2061 93.4569C55.1285 92.7403 55.5753 92.2242 56.3611 92.139L58.106 91.9499L58.3614 94.3077L56.6165 94.4968Z" fill="#1B1F21"/>
<path d="M51.0018 87.5277L45.1523 86.9165L45.0025 88.3502L49.2567 88.7948L49.0091 91.1652L46.1537 90.8668L46.004 92.3006L48.8594 92.5989L48.6504 94.5993L44.5118 94.1668L44.3621 95.6006L50.096 96.1998L51.0018 87.5277Z" fill="#1B1F21"/>
<path d="M40.2556 89.5288C40.1001 89.934 39.875 90.2503 39.5803 90.4775C39.2756 90.7092 38.9285 90.8458 38.5391 90.8872C38.1497 90.9287 37.7489 90.8703 37.3365 90.712C36.9169 90.5509 36.5799 90.326 36.3255 90.0374C36.061 89.7533 35.8966 89.4245 35.8324 89.0512C35.7582 88.6823 35.8002 88.2916 35.9584 87.8792C36.1139 87.474 36.344 87.1555 36.6487 86.9238C36.9434 86.6966 37.2855 86.5622 37.6749 86.5208C38.057 86.4766 38.4579 86.535 38.8775 86.6961C39.2899 86.8544 39.6283 87.0756 39.8927 87.3598C40.1544 87.6512 40.321 87.9849 40.3925 88.361C40.4567 88.7344 40.4111 89.1236 40.2556 89.5288ZM38.9968 89.0456C39.094 88.7924 39.0885 88.5578 38.9805 88.342C38.8696 88.1334 38.684 87.9791 38.4235 87.8791C38.1703 87.7819 37.9314 87.7774 37.7067 87.8654C37.4748 87.9508 37.3116 88.1164 37.2172 88.3624C37.12 88.6157 37.1305 88.848 37.2486 89.0594C37.3566 89.2752 37.5373 89.4317 37.7905 89.5289C38.0509 89.6289 38.2935 89.6348 38.5182 89.5468C38.7401 89.4659 38.8996 89.2989 38.9968 89.0456Z" fill="#1B1F21"/>
<path d="M24.7179 83.9925C24.1666 85.4028 24.5997 86.7243 25.9908 87.7364C27.4383 88.7896 29.2167 88.7752 30.0919 87.5718C31.22 86.0206 30.1374 84.8016 29.2155 83.757C28.5208 82.9928 27.9184 82.3389 28.4038 81.6714C28.903 80.9851 29.6883 81.1108 30.4214 81.6442C31.2298 82.2324 31.5339 83 31.0955 84.0179L32.6874 84.6155C33.2764 83.0745 32.8441 81.653 31.265 80.5041C29.6953 79.362 28.0058 79.4123 27.0349 80.7473C25.9409 82.2515 26.9475 83.5158 27.8669 84.5441C28.5573 85.334 29.1785 86.0016 28.7067 86.6503C28.3102 87.1956 27.6171 87.1801 26.8276 86.6057C26.1038 86.0791 25.9372 85.3397 26.2612 84.5978L24.7179 83.9925Z" fill="#1B1F21"/>
<path d="M24.9697 81.4532C26.9281 79.7727 27.1778 77.1535 25.4977 75.1947C23.8175 73.2359 21.1914 73.0844 19.233 74.7649C17.2657 76.453 17.0248 79.0646 18.705 81.0235C20.3851 82.9823 23.0024 83.1413 24.9697 81.4532ZM20.3152 76.0267C21.6914 74.8458 23.3026 74.9031 24.3773 76.1561C25.452 77.409 25.2636 79.0105 23.8874 80.1914C22.5112 81.3723 20.9 81.315 19.8253 80.0621C18.7506 78.8091 18.939 77.2076 20.3152 76.0267Z" fill="#1B1F21"/>
<path d="M21.929 70.6894L21.1804 69.2705L17.9423 70.9798L16.5969 68.43L15.3222 69.1029L16.6677 71.6527L14.7454 72.6674L12.9226 69.2128L11.6479 69.8857L14.2195 74.7592L21.929 70.6894Z" fill="#1B1F21"/>
<path d="M18.5221 63.2596L18.0559 61.7245L11.1273 63.8299L10.3874 61.3938L8.97494 61.8229L10.9176 68.2191L12.33 67.7899L11.5935 65.3649L18.5221 63.2596Z" fill="#1B1F21"/>
<path d="M10.9163 54.633L14.8395 56.3651L8.26196 58.0714L8.34919 59.685L16.9591 57.4613L16.8675 55.7664L13.6001 54.3248L16.6905 52.4928L16.5995 50.8095L7.80005 49.5274L7.88603 51.1178L14.6202 52.0925L10.8981 54.2963L10.9163 54.633Z" fill="#1B1F21"/>
<path d="M16.5725 49.1447L16.8956 47.5495L14.5332 46.098L15.1611 42.9988L17.9021 42.5817L18.2392 40.9181L9.03518 42.4451L8.68892 44.1543L16.5725 49.1447ZM13.2473 45.3036L10.6436 43.6964L13.6674 43.2298L13.2473 45.3036Z" fill="#1B1F21"/>
<path d="M18.4805 40.4463L19.1437 38.9855L15.9899 37.5531L16.5665 36.2829L20.6382 35.6934L21.3927 34.0315L16.9536 34.6711C17.0398 33.6377 16.5787 32.7133 15.5203 32.2326C14.0704 31.5741 12.6383 32.226 11.9415 33.7609L10.5431 36.8413L18.4805 40.4463ZM13.2442 34.3781C13.571 33.6583 14.2116 33.4002 14.8571 33.6934C15.5133 33.9914 15.73 34.6389 15.4032 35.3587L14.6775 36.9571L12.5186 35.9765L13.2442 34.3781Z" fill="#1B1F21"/>
<path d="M22.0457 33.1178L25.5573 28.3989L24.4011 27.5381L21.8473 30.9701L19.9358 29.5471L21.65 27.2436L20.4938 26.3829L18.7797 28.6864L17.1666 27.4855L19.6511 24.1468L18.4949 23.2861L15.0527 27.9118L22.0457 33.1178Z" fill="#1B1F21"/>
<path d="M25.729 22.8591C25.4586 22.5196 25.3002 22.1652 25.2538 21.796C25.2086 21.4158 25.2668 21.0473 25.4285 20.6906C25.5902 20.3339 25.8438 20.0179 26.1893 19.7426C26.5408 19.4625 26.9054 19.286 27.2831 19.2129C27.6621 19.129 28.0287 19.1539 28.383 19.2878C28.7386 19.4108 29.0539 19.6451 29.3291 19.9906C29.5995 20.3301 29.7573 20.6899 29.8025 21.0701C29.8489 21.4394 29.7913 21.8024 29.6296 22.1591C29.4739 22.511 29.2204 22.827 28.8688 23.1071C28.5234 23.3824 28.1612 23.562 27.7822 23.6459C27.3984 23.7238 27.0263 23.6982 26.666 23.5691C26.3117 23.4353 25.9993 23.1986 25.729 22.8591ZM26.7836 22.0188C26.9525 22.231 27.1574 22.3452 27.3982 22.3615C27.6342 22.3716 27.8613 22.2898 28.0794 22.1159C28.2916 21.9469 28.4166 21.7432 28.4547 21.5049C28.4987 21.2617 28.4387 21.037 28.2745 20.8309C28.1055 20.6187 27.9 20.5099 27.658 20.5046C27.4172 20.4884 27.1908 20.5648 26.9786 20.7338C26.7605 20.9076 26.6324 21.1137 26.5943 21.3521C26.5515 21.5844 26.6146 21.8067 26.7836 22.0188Z" fill="#1B1F21"/>
<path d="M38.3854 12.2022C37.4483 11.013 36.0896 10.7179 34.5128 11.4059C32.8721 12.1218 31.9847 13.6632 32.5795 15.0272C33.3464 16.7854 34.9453 16.4683 36.3126 16.2015C37.3232 15.9888 38.1919 15.8001 38.5219 16.5566C38.8611 17.3345 38.3553 17.9484 37.5243 18.311C36.6081 18.7107 35.7923 18.5847 35.1364 17.6913L33.8154 18.7623C34.8463 20.0502 36.2909 20.3966 38.0807 19.6157C39.8598 18.8394 40.6714 17.3564 40.0115 15.8433C39.2679 14.1383 37.6683 14.3669 36.3163 14.6398C35.2858 14.8357 34.3958 15.0338 34.0751 14.2985C33.8056 13.6805 34.1696 13.0904 35.0645 12.6999C35.8848 12.342 36.6067 12.5724 37.0825 13.2273L38.3854 12.2022Z" fill="#1B1F21"/>
<path d="M40.4526 13.6825C40.907 16.2231 43.0369 17.7671 45.5769 17.3127C48.117 16.8582 49.5797 14.6715 49.1254 12.1309C48.669 9.57885 46.5411 8.04629 44.0011 8.50073C41.461 8.95517 39.9962 11.1305 40.4526 13.6825ZM47.4892 12.4236C47.8085 14.2089 46.9417 15.5686 45.317 15.8593C43.6923 16.15 42.408 15.1751 42.0888 13.3898C41.7695 11.6045 42.6363 10.2448 44.261 9.95413C45.8857 9.66345 47.1699 10.6383 47.4892 12.4236Z" fill="#1B1F21"/>
<path d="M51.4313 16.5081L53.0333 16.5886L53.2169 12.9311L56.0958 13.0757L56.1681 11.6359L53.2892 11.4913L53.3982 9.32003L57.2987 9.5159L57.3709 8.07613L51.8685 7.7998L51.4313 16.5081Z" fill="#1B1F21"/>
<path d="M59.4306 17.3209L60.9894 17.6992L62.6969 10.6606L65.1706 11.261L65.5187 9.82615L59.0238 8.24984L58.6757 9.68467L61.1381 10.2823L59.4306 17.3209Z" fill="#1B1F21"/>
<path d="M70.9261 15.2153L67.4338 17.7047L69.3259 11.1768L67.8943 10.4278L65.4091 18.9677L66.9128 19.7544L69.8205 17.6807L69.8173 21.2739L71.3107 22.0552L76.9062 15.1426L75.4952 14.4044L71.2186 19.6979L71.2248 15.3716L70.9261 15.2153Z" fill="#1B1F21"/>
<path d="M72.6849 22.8362L73.8926 23.9271L76.345 22.6333L78.6913 24.7527L77.6536 27.3243L78.913 28.462L82.2887 19.7624L80.9947 18.5937L72.6849 22.8362ZM77.6836 21.9313L80.3927 20.5093L79.2535 23.3495L77.6836 21.9313Z" fill="#1B1F21"/>
<path d="M79.1659 28.8669L80.0904 30.178L82.921 28.1812L83.7249 29.3212L82.1739 33.1326L83.2257 34.6242L84.9192 30.4704C85.7669 31.0674 86.7974 31.1371 87.7473 30.467C89.0486 29.549 89.2106 27.9836 88.2392 26.606L86.2897 23.8414L79.1659 28.8669ZM87.048 27.4179C87.5036 28.0639 87.4022 28.7472 86.8228 29.1559C86.2339 29.5714 85.5659 29.4309 85.1103 28.7849L84.0988 27.3503L86.0364 25.9834L87.048 27.4179Z" fill="#1B1F21"/>
<path d="M83.7072 35.6887L85.9983 41.1066L87.3257 40.545L85.6595 36.6047L87.854 35.6763L88.9724 38.321L90.2998 37.7594L89.1814 35.1147L91.0334 34.3312L92.6544 38.1645L93.9818 37.6029L91.736 32.2921L83.7072 35.6887Z" fill="#1B1F21"/>
<path d="M90.6808 44.106C91.1106 44.046 91.4962 44.09 91.8376 44.238C92.1878 44.3925 92.4752 44.6302 92.6999 44.951C92.9246 45.2718 93.0675 45.651 93.1286 46.0885C93.1907 46.5337 93.1571 46.9375 93.0277 47.2999C92.9071 47.6689 92.699 47.9718 92.4034 48.2087C92.1166 48.4522 91.7545 48.6045 91.3171 48.6656C90.8873 48.7256 90.4973 48.6783 90.1471 48.5237C89.8057 48.3757 89.5226 48.1414 89.2979 47.8206C89.0743 47.5075 88.9314 47.1283 88.8693 46.6831C88.8082 46.2456 88.838 45.8423 88.9586 45.4733C89.087 45.1032 89.2984 44.7959 89.5928 44.5513C89.8884 44.3144 90.251 44.166 90.6808 44.106ZM90.8672 45.4416C90.5986 45.4791 90.396 45.5974 90.2595 45.7965C90.1306 45.9944 90.0855 46.2316 90.1241 46.5079C90.1615 46.7766 90.2732 46.9879 90.459 47.142C90.6459 47.3037 90.8698 47.3664 91.1307 47.33C91.3993 47.2925 91.5975 47.1709 91.7253 46.9652C91.8618 46.7662 91.9113 46.5323 91.8738 46.2637C91.8353 45.9873 91.7231 45.7721 91.5373 45.6181C91.3592 45.463 91.1358 45.4041 90.8672 45.4416Z" fill="#1B1F21"/>
</svg>
