<svg  viewBox="0 0 120 120" fill="none" xmlns="http://www.w3.org/2000/svg">
<circle cx="60" cy="60" r="60" fill="#BEDB39"/>
<path fill-rule="evenodd" clip-rule="evenodd" d="M60 6C30.1766 6 6 30.1766 6 60C6 89.8234 30.1766 114 60 114C89.8234 114 114 89.8234 114 60C114 30.1766 89.8234 6 60 6ZM8.3064 60C8.3064 31.4504 31.4504 8.3064 60 8.3064C88.5496 8.3064 111.694 31.4504 111.694 60C111.694 88.5496 88.5496 111.694 60 111.694C31.4504 111.694 8.3064 88.5496 8.3064 60Z" fill="#1B1F21"/>
<path d="M60 40L61.8711 55.3991L70.4138 49.3934L64.5173 58.0942L78 60L64.5173 61.9058L70.4138 70.6066L61.8711 64.6009L60 80L58.1289 64.6009L49.5862 70.6066L55.4827 61.9058L42 60L55.4827 58.0942L49.5862 49.3934L58.1289 55.3991L60 40Z" fill="#1B1F21"/>
<path d="M98.1933 62.7885C100.33 63.1267 101.495 64.624 101.187 66.5446C100.967 67.9204 100.12 68.7361 98.8698 68.9152L99.0981 70.8229C101.059 70.5887 102.56 69.1084 102.926 66.82C103.402 63.8505 101.532 61.3198 98.5051 60.8406C95.4509 60.3571 92.8582 62.1673 92.383 65.1368C91.9295 67.9701 93.4985 70.1878 96.3061 70.6322L97.1963 70.7732L98.1097 65.0658L96.4525 64.8034L95.8508 68.5629C94.5426 68.3139 93.8579 66.9765 94.1064 65.4236C94.4226 63.4485 96.0294 62.4459 98.1933 62.7885Z" fill="#1B1F21"/>
<path d="M91.8028 69.8927L90.9414 71.6233L93.2209 74.0077L91.5473 77.3699L88.2588 77.0127L87.3604 78.8175L98.4415 79.8718L99.3644 78.0177L91.8028 69.8927ZM94.4603 75.3105L96.9702 77.9469L93.3404 77.5602L94.4603 75.3105Z" fill="#1B1F21"/>
<path d="M87.202 79.1145L85.9171 80.4112L91.4582 85.8429L86.4131 85.2161L86.1405 85.4912L86.8736 90.5284L81.3028 85.0677L80.0081 86.3743L87.416 93.6358L88.8373 92.2015L88.065 87.1646L93.1887 87.8103L94.61 86.376L87.202 79.1145Z" fill="#1B1F21"/>
<path d="M78.2347 87.1699L76.6089 88.174L82.0953 96.9625L83.7212 95.9584L78.2347 87.1699Z" fill="#1B1F21"/>
<path d="M75.2414 89.2614L73.5374 89.8469L76.0372 97.0433L68.8448 91.4594L66.9179 92.1215L70.3145 101.899L72.0316 101.309L69.5499 94.1649L76.7111 99.7011L78.6379 99.039L75.2414 89.2614Z" fill="#1B1F21"/>
<path d="M64.0034 97.6671C64.0368 99.8185 62.7548 101.218 60.7996 101.248C59.3991 101.269 58.4453 100.58 58.0523 99.3862L56.2023 99.9389C56.7724 101.82 58.4973 103.035 60.8268 102.999C63.8497 102.953 66.0337 100.685 65.9863 97.6366C65.9386 94.5612 63.6987 92.3332 60.6758 92.3797C57.7916 92.4239 55.8658 94.3434 55.9097 97.1706L55.9236 98.0671L61.7336 97.9778L61.7077 96.3091L57.8806 96.3679C57.9016 95.0432 59.1082 94.1419 60.6889 94.1176C62.6996 94.0867 63.9696 95.488 64.0034 97.6671Z" fill="#1B1F21"/>
<path d="M49.9959 96.2075C49.8305 96.6955 49.6188 97.0611 49.3606 97.3045C49.0938 97.545 48.798 97.6836 48.4734 97.7203C48.1458 97.7657 47.8111 97.7311 47.4694 97.6166C47.1277 97.502 46.8447 97.3295 46.6204 97.0991C46.3843 96.8744 46.2333 96.586 46.1672 96.2339C46.1012 95.8818 46.1509 95.4618 46.3162 94.9739C46.4787 94.4946 46.6933 94.1348 46.9602 93.8943C47.2271 93.6538 47.5243 93.5109 47.8519 93.4655C48.1707 93.4171 48.501 93.4502 48.8427 93.5648C49.1844 93.6793 49.4718 93.8533 49.7049 94.0867C49.938 94.3201 50.0875 94.6129 50.1536 94.9649C50.2109 95.3141 50.1583 95.7283 49.9959 96.2075Z" fill="#1B1F21"/>
<path d="M39.4808 91.7321C38.1514 93.4297 36.2708 93.7212 34.7281 92.5261C33.6231 91.6701 33.3137 90.5388 33.7597 89.3632L31.9698 88.641C31.229 90.4623 31.8078 92.4842 33.6458 93.9081C36.031 95.7558 39.162 95.349 41.0453 92.9441C42.9457 90.5175 42.6036 87.3853 40.2185 85.5376C37.9428 83.7747 35.2326 84.0705 33.4857 86.3012L32.9318 87.0085L37.516 90.5598L38.5472 89.2431L35.5275 86.9038C36.3784 85.8846 37.8866 85.934 39.1338 86.9002C40.7203 88.1292 40.8272 90.0128 39.4808 91.7321Z" fill="#1B1F21"/>
<path d="M36.3191 82.7243L35.2058 81.1422L32.0087 81.9871L29.8459 78.9134L31.7389 76.2152L30.578 74.5653L24.3306 83.7287L25.5234 85.4238L36.3191 82.7243ZM30.2647 82.4434L26.7347 83.3685L28.8175 80.3867L30.2647 82.4434Z" fill="#1B1F21"/>
<path d="M30.4195 74.3368L29.8941 72.5928L22.4415 74.814L25.4195 70.7154L25.308 70.3454L20.5147 68.5631L28.0071 66.33L27.4776 64.5728L17.5143 67.5423L18.0955 69.4713L22.9075 71.2193L19.875 75.3773L20.4562 77.3063L30.4195 74.3368Z" fill="#1B1F21"/>
<path d="M27.639 62.6266L27.543 60.7256L17.155 61.2443L17.251 63.1453L27.639 62.6266Z" fill="#1B1F21"/>
<path d="M27.2455 58.8748L27.5562 57.1086L20.0155 55.7967L28.4116 52.2445L28.7629 50.2473L18.5174 48.4648L18.2044 50.2446L25.6904 51.5471L17.3513 55.0951L17 57.0923L27.2455 58.8748Z" fill="#1B1F21"/>
<path d="M25.2583 45.0652C23.3526 44.0468 22.7479 42.2519 23.6733 40.5387C24.3363 39.3115 25.4056 38.8182 26.6457 39.058L27.061 37.1818C25.1313 36.7614 23.2245 37.6683 22.1218 39.7096C20.691 42.3584 21.6199 45.36 24.3198 46.8027C27.044 48.2584 30.0912 47.3971 31.522 44.7483C32.8872 42.221 32.139 39.6135 29.6346 38.2753L28.8406 37.8509L26.0904 42.942L27.5686 43.7318L29.3802 40.3783C30.5333 41.0415 30.7375 42.5285 29.9893 43.9136C29.0376 45.6755 27.1886 46.0966 25.2583 45.0652Z" fill="#1B1F21"/>
<path d="M33.2617 33.6675C32.9119 33.2879 32.6922 32.9269 32.6025 32.5846C32.5196 32.2361 32.5404 31.9115 32.6648 31.6111C32.783 31.3038 32.975 31.029 33.2409 30.7867C33.5067 30.5444 33.7952 30.3812 34.1065 30.2971C34.4183 30.2 34.7451 30.2077 35.087 30.3201C35.4289 30.4326 35.7747 30.6786 36.1245 31.0583C36.4681 31.4312 36.6813 31.7919 36.7641 32.1404C36.847 32.4889 36.8294 32.8168 36.7112 33.1241C36.5998 33.4252 36.4112 33.6968 36.1454 33.9391C35.8795 34.1814 35.5876 34.3477 35.2695 34.438C34.9515 34.5284 34.6215 34.5173 34.2796 34.4048C33.9446 34.2862 33.6053 34.0404 33.2617 33.6675Z" fill="#1B1F21"/>
<path d="M42.1416 26.692C41.284 24.7166 41.931 22.9363 43.7262 22.1653C45.0121 21.6131 46.1583 21.8871 46.9803 22.8411L48.4775 21.6273C47.2278 20.1057 45.167 19.6385 43.028 20.5571C40.2525 21.7491 39.106 24.6754 40.3209 27.4739C41.5469 30.2977 44.4729 31.5051 47.2484 30.3131C49.8967 29.1758 50.9387 26.67 49.8117 24.0741L49.4543 23.251L44.1197 25.542L44.7849 27.0742L48.2989 25.5651C48.7885 26.7972 48.0199 28.0888 46.5685 28.7121C44.7223 29.5049 43.0102 28.6927 42.1416 26.692Z" fill="#1B1F21"/>
<path d="M51.6635 28.2072L53.5945 28.0065L54.4027 24.8161L58.1545 24.4263L59.6083 27.3817L61.622 27.1724L56.5965 17.2935L54.5275 17.5085L51.6635 28.2072ZM54.8476 23.078L55.7469 19.5591L57.358 22.8171L54.8476 23.078Z" fill="#1B1F21"/>
<path d="M62.0124 27.1062L63.8007 27.4949L65.4621 19.9355L67.6215 24.5135L68.0009 24.596L71.8928 21.2912L70.2226 28.891L72.0245 29.2828L74.2455 19.1766L72.2675 18.7466L68.3968 22.0842L66.2114 17.43L64.2334 17L62.0124 27.1062Z" fill="#1B1F21"/>
<path d="M73.6609 30.3347L75.3791 31.1729L79.9592 21.8851L78.2409 21.0469L73.6609 30.3347Z" fill="#1B1F21"/>
<path d="M77.015 31.7103L78.4211 32.8326L83.2126 26.8948L82.293 35.9234L83.8829 37.1924L90.3931 29.1247L88.9763 27.9937L84.2195 33.8886L85.1151 24.9116L83.5252 23.6425L77.015 31.7103Z" fill="#1B1F21"/>
<path d="M90.3344 36.8401C92.1511 35.6717 94.0235 36.0115 95.0853 37.6447C95.8459 38.8145 95.764 39.9841 94.9541 40.9484L96.4057 42.2158C97.7075 40.7381 97.8294 38.6394 96.5643 36.6935C94.9227 34.1685 91.8313 33.5286 89.2576 35.1838C86.6606 36.854 85.9481 39.9239 87.5897 42.4488C89.156 44.858 91.8132 45.4651 94.2005 43.9297L94.9575 43.4429L91.8023 38.5898L90.3932 39.4961L92.4715 42.6928C91.331 43.3771 89.923 42.8372 89.0645 41.5167C87.9727 39.8373 88.4944 38.0234 90.3344 36.8401Z" fill="#1B1F21"/>
<path d="M96.4555 49.1964C96.9587 49.075 97.3826 49.0579 97.7273 49.145C98.0742 49.2411 98.3499 49.4158 98.5545 49.6692C98.768 49.9205 98.9173 50.2204 99.0023 50.5689C99.0873 50.9174 99.0917 51.2475 99.0156 51.5592C98.9505 51.8777 98.786 52.1587 98.522 52.4022C98.2579 52.6457 97.8743 52.8281 97.3712 52.9496C96.877 53.0688 96.4565 53.0804 96.1096 52.9844C95.7627 52.8883 95.4825 52.7146 95.2689 52.4634C95.0576 52.2211 94.9094 51.9256 94.8244 51.5771C94.7394 51.2286 94.7339 50.8941 94.8078 50.5734C94.8818 50.2528 95.0509 49.9707 95.3149 49.7272C95.5812 49.4926 95.9614 49.3157 96.4555 49.1964Z" fill="#1B1F21"/>
</svg>
