<svg width="1208" height="518" viewBox="0 0 1208 518" fill="none" xmlns="http://www.w3.org/2000/svg">
<path d="M0 97.9696C0 43.8625 39.2109 0 87.58 0H1120.42C1168.79 0 1208 43.8625 1208 97.9696C1208 131.328 1193.1 160.793 1170.33 178.485C1193.1 196.177 1208 225.641 1208 259C1208 292.359 1193.1 321.823 1170.33 339.515C1193.1 357.207 1208 386.672 1208 420.03C1208 474.138 1168.79 518 1120.42 518H87.58C39.2109 518 0 474.138 0 420.03C0 386.672 14.9043 357.207 37.6702 339.515C14.9043 321.823 0 292.359 0 259C0 225.641 14.9043 196.177 37.6702 178.485C14.9043 160.793 0 131.328 0 97.9696Z" fill="black"/>
</svg>
