<svg width="288" height="498" viewBox="0 0 288 498" fill="none" xmlns="http://www.w3.org/2000/svg">
<mask id="mask0_1003_2444" style="mask-type:alpha" maskUnits="userSpaceOnUse" x="0" y="0" width="288" height="498">
<path d="M0 78.411C0 35.1058 35.1058 0 78.411 0C121.716 0 156.822 35.1058 156.822 78.411V419.589C156.822 462.894 121.716 498 78.411 498C35.1058 498 0 462.894 0 419.589V78.411Z" fill="#1B1F21"/>
<path d="M131.178 78.411C131.178 35.1058 166.284 0 209.589 0C252.894 0 288 35.1058 288 78.411V419.589C288 462.894 252.894 498 209.589 498C166.284 498 131.178 462.894 131.178 419.589V78.411Z" fill="#1B1F21"/>
</mask>
<g mask="url(#mask0_1003_2444)">
<rect width="288" height="516" fill="#1B1F21"/>
<path fill-rule="evenodd" clip-rule="evenodd" d="M285.158 38.5554C279.425 29.757 273.457 20.9852 267.322 12.2951C265.465 9.66421 266.272 5.87317 269.126 3.82762C271.979 1.78207 275.798 2.25661 277.655 4.88754C283.86 13.6776 289.903 22.5594 295.714 31.4772C297.473 34.1764 296.536 37.949 293.621 39.9036C290.706 41.8582 286.917 41.2546 285.158 38.5554ZM257.604 -11.9423C254.806 -9.82157 250.965 -10.1863 249.026 -12.7569C242.595 -21.2828 236.063 -29.6691 229.5 -37.8593C227.487 -40.3721 228.08 -44.1837 230.825 -46.3728C233.57 -48.5619 237.428 -48.2995 239.442 -45.7868C246.067 -37.5188 252.663 -29.0501 259.16 -20.437C261.099 -17.8663 260.402 -14.0632 257.604 -11.9423ZM303.959 56.5083C306.942 54.6636 310.69 55.4182 312.331 58.1936C317.92 67.6502 323.177 77.0916 328.018 86.4518C329.501 89.3195 328.219 93.0205 325.154 94.7184C322.09 96.4162 318.403 95.4679 316.92 92.6003C312.182 83.4394 307.025 74.1757 301.527 64.8738C299.887 62.0984 300.975 58.353 303.959 56.5083ZM218.403 -61.4474C215.708 -59.1963 211.837 -59.3636 209.756 -61.8209C202.73 -70.1155 195.75 -78.1182 188.9 -85.7597C186.75 -88.1583 187.147 -91.9783 189.786 -94.2919C192.426 -96.6056 196.309 -96.5367 198.459 -94.1381C205.375 -86.4225 212.422 -78.3443 219.512 -69.9728C221.594 -67.5155 221.097 -63.6985 218.403 -61.4474ZM333.557 112.404C336.716 110.905 340.306 112.103 341.577 115.08C346.037 125.527 349.85 135.801 352.882 145.802C353.826 148.915 351.939 152.403 348.668 153.592C345.397 154.78 341.98 153.22 341.036 150.107C338.139 140.548 334.47 130.65 330.139 120.507C328.869 117.53 330.399 113.902 333.557 112.404ZM176.494 -108.695C173.915 -106.315 170.022 -106.278 167.8 -108.612C159.987 -116.815 152.5 -124.381 145.489 -131.19C143.175 -133.436 143.324 -137.253 145.822 -139.714C148.32 -142.176 152.22 -142.35 154.534 -140.103C161.654 -133.188 169.24 -125.522 177.139 -117.228C179.362 -114.894 179.073 -111.074 176.494 -108.695ZM131.367 -153.041C129.012 -150.45 125.109 -150.049 122.651 -152.145C118.154 -155.979 114.106 -159.213 110.576 -161.803C107.964 -163.718 107.616 -167.482 109.8 -170.209C111.984 -172.936 115.871 -173.593 118.483 -171.678C122.283 -168.89 126.544 -165.481 131.181 -161.527C133.639 -159.431 133.722 -155.632 131.367 -153.041ZM353.018 172.968C356.398 172.295 359.468 174.395 359.874 177.659C361.388 189.822 361.33 201.471 359.292 212.318C358.669 215.634 355.451 218.052 352.103 217.718C348.756 217.385 346.548 214.427 347.171 211.111C348.927 201.766 349.037 191.378 347.633 180.097C347.227 176.833 349.637 173.642 353.018 172.968ZM343.747 236.798C346.352 238.724 346.685 242.489 344.493 245.21C340.582 250.061 335.951 254.476 330.579 258.415C325.526 262.119 320.329 265.466 315.007 268.47C314.06 269.004 313.052 269.285 312.065 269.332C315.804 278.211 319.116 287.038 321.95 295.748C322.955 298.838 321.134 302.355 317.881 303.602C314.628 304.849 311.176 303.355 310.171 300.265C306.75 289.752 302.589 279.01 297.778 268.17C296.466 265.213 297.949 261.57 301.09 260.032C303.195 259.002 305.511 259.179 307.204 260.297C307.78 259.437 308.569 258.688 309.54 258.139C314.39 255.401 319.127 252.351 323.734 248.974C328.174 245.719 331.925 242.128 335.061 238.237C337.254 235.517 341.143 234.873 343.747 236.798ZM267.467 199.963C270.395 198.027 274.177 198.657 275.915 201.37C282.32 211.363 288.33 221.502 293.871 231.688C295.413 234.522 294.202 238.241 291.167 239.993C288.131 241.746 284.421 240.87 282.879 238.035C277.466 228.085 271.587 218.166 265.315 208.38C263.577 205.667 264.54 201.899 267.467 199.963ZM254.813 181.579C251.995 183.674 248.162 183.271 246.251 180.679C239.42 171.414 232.281 162.374 224.905 153.657C222.824 151.199 223.323 147.382 226.018 145.132C228.713 142.882 232.584 143.051 234.665 145.509C242.197 154.411 249.484 163.638 256.455 173.093C258.366 175.685 257.63 179.485 254.813 181.579ZM211.046 128.613C208.49 131.016 204.595 131.092 202.346 128.783C194.164 120.383 185.803 112.449 177.344 105.09C174.907 102.971 174.859 99.1675 177.237 96.5959C179.615 94.0243 183.518 93.6579 185.954 95.7776C194.653 103.344 203.229 111.483 211.602 120.081C213.851 122.39 213.602 126.21 211.046 128.613ZM159.635 82.6813C157.495 85.4392 153.613 86.1584 150.966 84.2876C141.151 77.3522 131.345 71.3359 121.672 66.3874C118.763 64.8995 117.84 61.2759 119.61 58.294C121.38 55.3119 125.172 54.1007 128.081 55.5886C138.288 60.8104 148.541 67.1098 158.717 74.3003C161.364 76.1711 161.775 79.9234 159.635 82.6813ZM323.509 325.521C326.866 324.69 330.049 326.633 330.619 329.86C332.873 342.627 333.835 354.975 333.264 366.635C333.101 369.965 330.212 372.762 326.812 372.882C323.411 373.002 320.786 370.399 320.949 367.069C321.469 356.447 320.601 344.974 318.464 332.87C317.894 329.642 320.153 326.352 323.509 325.521ZM286.68 274.886C287.414 278.068 285.314 281.45 281.99 282.438C270.446 285.87 258.591 288.031 246.59 289.07C243.186 289.365 240.413 286.913 240.397 283.593C240.38 280.274 243.127 277.344 246.532 277.049C257.737 276.079 268.716 274.069 279.332 270.913C282.656 269.924 285.946 271.703 286.68 274.886ZM98.4295 49.8698C97.2932 53.0934 93.7704 55.0214 90.5611 54.1761C78.6747 51.0455 67.3866 49.9973 56.8985 51.2016C53.4959 51.5924 50.6446 49.2261 50.53 45.9166C50.4154 42.607 53.0809 39.6073 56.4835 39.2166C68.8393 37.7978 81.681 39.0798 94.6759 42.5024C97.8853 43.3477 99.5658 46.6462 98.4295 49.8698ZM321.878 395.845C324.973 396.974 326.334 400.431 324.917 403.566C322.106 409.787 318.551 415.602 314.193 420.918C309.986 426.05 305.556 430.857 300.907 435.33C298.379 437.761 294.481 437.886 292.2 435.607C289.92 433.328 290.12 429.51 292.648 427.078C296.892 422.995 300.956 418.587 304.833 413.859C308.394 409.515 311.342 404.712 313.707 399.48C315.124 396.344 318.782 394.717 321.878 395.845ZM219.221 283.587C218.667 286.909 215.495 289.387 212.136 289.122C200.691 288.218 189.234 286.442 177.893 283.909C174.644 283.183 172.834 279.958 173.851 276.705C174.868 273.453 178.326 271.404 181.576 272.13C192.415 274.551 203.312 276.237 214.142 277.092C217.502 277.357 219.775 280.265 219.221 283.587ZM27.9995 54.4837C29.8531 57.1173 29.0407 60.9077 26.185 62.9498C21.7159 66.1456 17.4147 70.0364 13.3201 74.6968C9.62235 78.9054 6.69702 83.284 4.46755 87.7946C2.93897 90.8873 -0.766307 92.3878 -3.80839 91.1461C-6.85049 89.9045 -8.07743 86.3908 -6.54888 83.2982C-3.78513 77.7066 -0.191409 72.3497 4.26272 67.2802C9.00801 61.8792 14.088 57.2632 19.4726 53.4127C22.3283 51.3706 26.1459 51.8501 27.9995 54.4837ZM153.978 270.97C152.595 274.118 148.952 275.783 145.841 274.689C135.199 270.946 124.762 266.594 114.644 261.732C111.694 260.315 110.682 256.721 112.382 253.705C114.083 250.689 117.853 249.392 120.802 250.81C130.564 255.5 140.617 259.691 150.85 263.29C153.961 264.384 155.361 267.822 153.978 270.97ZM272.951 449.967C274.446 452.828 273.179 456.533 270.12 458.242C258.804 464.564 246.679 469.343 233.829 472.53C230.473 473.362 227.289 471.421 226.718 468.194C226.146 464.967 228.404 461.676 231.76 460.844C243.485 457.937 254.479 453.594 264.706 447.881C267.765 446.172 271.457 447.106 272.951 449.967ZM94.5008 243.948C92.5227 246.813 88.6728 247.756 85.9019 246.054C76.2785 240.141 67.0943 233.788 58.4721 227.096C55.9159 225.112 55.6666 221.333 57.9154 218.655C60.1642 215.978 64.0593 215.415 66.6155 217.399C74.919 223.844 83.7756 229.971 93.0653 235.679C95.8362 237.381 96.4789 241.083 94.5008 243.948ZM-7.65879 111.824C-4.26047 111.345 -1.33888 113.63 -1.13326 116.928C-0.539035 126.46 2.12685 136.463 6.68971 146.678C8.00888 149.631 6.53395 153.277 3.39538 154.821C0.256779 156.365 -3.35696 155.223 -4.67613 152.269C-9.65784 141.116 -12.7447 129.811 -13.4397 118.663C-13.6453 115.365 -11.0571 112.303 -7.65879 111.824ZM42.7226 205.397C40.2048 207.839 36.306 207.98 34.0143 205.712C25.8322 197.614 18.4823 189.206 12.1454 180.628C10.2321 178.038 10.964 174.239 13.7801 172.141C16.5961 170.044 20.43 170.444 22.3433 173.034C28.3204 181.125 35.3009 189.119 43.1322 196.87C45.4239 199.138 45.2405 202.956 42.7226 205.397ZM203.405 471.102C203.177 474.435 200.239 477.182 196.842 477.238C184.942 477.437 172.596 476.473 159.845 474.329C156.547 473.775 154.559 470.662 155.404 467.375C156.25 464.089 159.608 461.875 162.906 462.429C174.992 464.461 186.588 465.357 197.665 465.172C201.062 465.115 203.632 467.77 203.405 471.102ZM133.311 461.962C132.028 465.144 128.431 466.918 125.278 465.925C114.341 462.481 103.15 458.244 91.7245 453.2C88.7245 451.876 87.5975 448.324 89.2071 445.265C90.8168 442.207 94.5537 440.802 97.5537 442.126C108.626 447.013 119.422 451.098 129.924 454.404C133.077 455.397 134.594 458.781 133.311 461.962ZM69.1788 435.316C67.3305 438.256 63.5143 439.368 60.6552 437.8C50.7076 432.342 40.6017 426.304 30.3487 419.676C27.6208 417.913 27.0609 414.191 29.098 411.363C31.1351 408.535 34.9978 407.672 37.7257 409.436C47.7701 415.929 57.6483 421.83 67.3487 427.152C70.2078 428.72 71.0272 432.376 69.1788 435.316ZM10.8626 398.768C8.67982 401.496 4.79232 402.154 2.17955 400.239C-6.93854 393.557 -16.1615 386.423 -25.4819 378.83C-27.9885 376.788 -28.1527 372.998 -25.8488 370.364C-23.5449 367.73 -19.6452 367.25 -17.1386 369.292C-7.95458 376.774 1.12218 383.794 10.0839 390.362C12.6967 392.277 13.0453 396.041 10.8626 398.768ZM-42.6351 356.057C-45.0367 358.607 -48.9398 358.936 -51.3529 356.791C-59.809 349.275 -68.3378 341.39 -76.9343 333.131C-79.2601 330.897 -79.1301 327.081 -76.6439 324.608C-74.1576 322.136 -70.2567 321.943 -67.9308 324.178C-59.4307 332.344 -51.0039 340.134 -42.6557 347.555C-40.2426 349.699 -40.2333 353.506 -42.6351 356.057ZM-92.318 309.021C-94.8748 311.423 -98.7699 311.499 -101.018 309.189C-108.886 301.105 -116.806 292.713 -124.774 284.008C-126.949 281.632 -126.59 277.811 -123.971 275.475C-121.351 273.139 -117.465 273.171 -115.29 275.547C-107.394 284.174 -99.5488 292.486 -91.7591 300.489C-89.511 302.799 -89.7613 306.619 -92.318 309.021ZM-138.613 259.026C-141.285 261.303 -145.161 261.175 -147.271 258.741C-154.682 250.191 -162.131 241.372 -169.615 232.284C-171.661 229.798 -171.115 225.983 -168.395 223.764C-165.674 221.544 -161.809 221.76 -159.763 224.246C-152.335 233.267 -144.944 242.016 -137.593 250.497C-135.484 252.931 -135.94 256.749 -138.613 259.026ZM-182.205 206.59C-184.968 208.758 -188.82 208.463 -190.81 205.931C-194.374 201.397 -197.945 196.803 -201.523 192.147C-203.485 189.593 -202.82 185.787 -200.038 183.646C-197.255 181.504 -193.409 181.837 -191.447 184.39C-187.893 189.016 -184.346 193.579 -180.807 198.082C-178.817 200.613 -179.443 204.423 -182.205 206.59Z" fill="#434343"/>
<path d="M140.407 312.502L56.3138 402.915L245.86 376.098L140.407 312.502Z" fill="#FE6D44"/>
<path fill-rule="evenodd" clip-rule="evenodd" d="M228.912 370.694L224.443 371.326C223.583 371.448 222.984 372.25 223.104 373.118C223.224 373.987 224.019 374.592 224.879 374.47L229.348 373.838C230.208 373.716 230.807 372.914 230.687 372.046C230.566 371.177 229.772 370.572 228.912 370.694ZM211.034 373.223L202.094 374.488C201.235 374.609 200.636 375.412 200.756 376.28C200.876 377.148 201.671 377.754 202.531 377.632L211.47 376.367C212.329 376.246 212.929 375.443 212.808 374.575C212.688 373.707 211.893 373.101 211.034 373.223ZM188.686 376.385L179.746 377.65C178.887 377.771 178.288 378.574 178.408 379.442C178.528 380.31 179.323 380.915 180.182 380.794L189.122 379.529C189.981 379.407 190.581 378.605 190.46 377.737C190.34 376.868 189.545 376.263 188.686 376.385ZM166.338 379.547L157.398 380.811C156.539 380.933 155.94 381.735 156.06 382.604C156.18 383.472 156.975 384.077 157.834 383.955L166.774 382.691C167.633 382.569 168.233 381.767 168.112 380.898C167.992 380.03 167.197 379.425 166.338 379.547ZM143.99 382.708L135.05 383.973C134.191 384.095 133.591 384.897 133.712 385.765C133.832 386.634 134.627 387.239 135.486 387.117L144.426 385.853C145.285 385.731 145.884 384.928 145.764 384.06C145.644 383.192 144.849 382.587 143.99 382.708ZM121.641 385.87L112.702 387.135C111.843 387.257 111.243 388.059 111.364 388.927C111.484 389.795 112.279 390.401 113.138 390.279L122.078 389.014C122.937 388.893 123.536 388.09 123.416 387.222C123.296 386.354 122.501 385.749 121.641 385.87ZM99.2934 389.032L90.3542 390.297C89.4946 390.418 88.8953 391.221 89.0158 392.089C89.1362 392.957 89.9307 393.562 90.7903 393.441L99.7295 392.176C100.589 392.054 101.188 391.252 101.068 390.384C100.948 389.516 100.153 388.91 99.2934 389.032ZM76.9454 392.194L72.4758 392.826C71.6161 392.948 71.0169 393.75 71.1373 394.618C71.2577 395.487 72.0522 396.092 72.9118 395.97L77.3814 395.338C78.2411 395.216 78.8403 394.414 78.7199 393.546C78.5995 392.677 77.805 392.072 76.9454 392.194Z" fill="#1B1F21"/>
<path d="M142.865 326.329L245.86 376.097L228.357 249.895L142.865 326.329Z" fill="#FE6D44"/>
<path d="M142.865 326.329L245.86 376.097L228.357 249.895L142.865 326.329Z" fill="#FCFAF9" fill-opacity="0.12"/>
<path fill-rule="evenodd" clip-rule="evenodd" d="M238.848 365.37C239.321 365.025 239.566 364.445 239.485 363.863L238.766 358.681C238.646 357.813 237.851 357.208 236.992 357.329C236.132 357.451 235.533 358.253 235.653 359.122L235.959 361.327L234.079 360.388C233.301 359.999 232.359 360.321 231.974 361.106C231.589 361.892 231.907 362.844 232.685 363.233L237.231 365.505C237.754 365.766 238.376 365.714 238.848 365.37ZM235.991 350.111C236.85 349.989 237.45 349.187 237.329 348.319L235.892 337.956C235.772 337.088 234.977 336.483 234.117 336.604C233.258 336.726 232.659 337.528 232.779 338.397L234.216 348.759C234.337 349.627 235.131 350.233 235.991 350.111ZM233.116 329.386C233.976 329.264 234.575 328.462 234.455 327.594L233.018 317.231C232.897 316.363 232.103 315.758 231.243 315.879C230.383 316.001 229.784 316.803 229.905 317.672L231.342 328.034C231.462 328.902 232.257 329.508 233.116 329.386ZM230.242 308.661C231.102 308.539 231.701 307.737 231.58 306.869L230.143 296.506C230.023 295.638 229.228 295.033 228.369 295.154C227.509 295.276 226.91 296.078 227.03 296.947L228.467 307.309C228.588 308.177 229.382 308.783 230.242 308.661ZM227.368 287.936C228.227 287.814 228.826 287.012 228.706 286.144L227.987 280.963C227.867 280.094 227.073 279.489 226.213 279.611C225.353 279.732 224.754 280.535 224.874 281.403L225.593 286.584C225.714 287.452 226.508 288.058 227.368 287.936ZM225.698 357.97C226.083 357.184 225.765 356.232 224.987 355.843L215.894 351.298C215.116 350.909 214.173 351.231 213.788 352.017C213.403 352.803 213.722 353.755 214.5 354.144L223.592 358.688C224.37 359.077 225.313 358.756 225.698 357.97ZM207.513 348.88C207.898 348.095 207.579 347.142 206.801 346.754L197.709 342.209C196.931 341.82 195.988 342.142 195.603 342.928C195.218 343.713 195.537 344.666 196.315 345.054L205.407 349.599C206.185 349.988 207.128 349.666 207.513 348.88ZM189.328 339.791C189.713 339.005 189.394 338.053 188.616 337.664L179.523 333.12C178.746 332.731 177.803 333.053 177.418 333.838C177.033 334.624 177.351 335.576 178.129 335.965L187.222 340.51C188 340.899 188.943 340.577 189.328 339.791ZM171.142 330.702C171.527 329.916 171.209 328.964 170.431 328.575L165.885 326.303C165.107 325.914 164.164 326.235 163.779 327.021C163.394 327.807 163.712 328.759 164.49 329.148L169.037 331.42C169.815 331.809 170.757 331.487 171.142 330.702Z" fill="#1B1F21"/>
<path d="M141.806 326.481L56.3139 402.915L38.8108 276.713L141.806 326.481Z" fill="#FE6D44"/>
<path d="M141.806 326.481L56.3139 402.915L38.8108 276.713L141.806 326.481Z" fill="#FCFAF9" fill-opacity="0.12"/>
<path fill-rule="evenodd" clip-rule="evenodd" d="M46.5009 287.015C47.3603 286.893 48.1556 287.497 48.2773 288.365L48.9796 293.376C49.1012 294.244 48.5031 295.048 47.6436 295.17C46.7842 295.293 45.9889 294.689 45.8672 293.821L45.1649 288.81C45.0433 287.942 45.6414 287.138 46.5009 287.015ZM48.6077 302.05C49.4672 301.927 50.2625 302.531 50.3841 303.399L51.7887 313.422C51.9103 314.29 51.3122 315.094 50.4528 315.217C49.5933 315.339 48.798 314.735 48.6764 313.867L47.2718 303.844C47.1501 302.976 47.7483 302.173 48.6077 302.05ZM51.4168 322.096C52.2763 321.973 53.0716 322.577 53.1933 323.445L54.5978 333.468C54.7195 334.336 54.1214 335.14 53.2619 335.263C52.4025 335.385 51.6071 334.781 51.4855 333.913L50.0809 323.89C49.9593 323.022 50.5574 322.219 51.4168 322.096ZM54.226 342.142C55.0854 342.019 55.8808 342.623 56.0024 343.491L57.407 353.514C57.5286 354.383 56.9305 355.186 56.0711 355.309C55.2116 355.432 54.4163 354.827 54.2946 353.959L52.8901 343.936C52.7684 343.068 53.3665 342.265 54.226 342.142ZM57.0351 362.188C57.8946 362.065 58.6899 362.669 58.8115 363.538L60.2161 373.561C60.3378 374.429 59.7396 375.232 58.8802 375.355C58.0207 375.478 57.2254 374.874 57.1038 374.005L55.6992 363.982C55.5776 363.114 56.1757 362.311 57.0351 362.188ZM59.8443 382.234C60.7037 382.111 61.499 382.716 61.6207 383.584L61.9068 385.625L63.4626 384.197C64.1049 383.607 65.0989 383.654 65.6828 384.303C66.2668 384.952 66.2195 385.956 65.5773 386.546L61.8241 389.992C61.3933 390.388 60.7813 390.51 60.2335 390.311C59.6858 390.111 59.2922 389.622 59.2106 389.04L58.5083 384.028C58.3867 383.16 58.9848 382.357 59.8443 382.234ZM70.8634 379.546C70.2795 378.897 70.3267 377.893 70.969 377.303L78.4753 370.41C79.1175 369.821 80.1115 369.868 80.6955 370.517C81.2794 371.166 81.2321 372.17 80.5899 372.759L73.0836 379.652C72.4413 380.242 71.4473 380.194 70.8634 379.546ZM85.876 365.76C85.2921 365.111 85.3394 364.107 85.9816 363.517L93.4879 356.624C94.1302 356.034 95.1242 356.082 95.7081 356.731C96.292 357.379 96.2448 358.383 95.6025 358.973L88.0962 365.866C87.454 366.456 86.46 366.408 85.876 365.76ZM100.889 351.974C100.305 351.325 100.352 350.321 100.994 349.731L108.501 342.838C109.143 342.248 110.137 342.296 110.721 342.945C111.305 343.593 111.257 344.597 110.615 345.187L103.109 352.08C102.467 352.67 101.473 352.622 100.889 351.974ZM115.901 338.187C115.317 337.539 115.365 336.535 116.007 335.945L119.76 332.498C120.402 331.909 121.396 331.956 121.98 332.605C122.564 333.254 122.517 334.258 121.875 334.847L118.121 338.294C117.479 338.884 116.485 338.836 115.901 338.187Z" fill="#1B1F21"/>
<path d="M144.264 340.309L38.8108 276.713L228.357 249.896L144.264 340.309Z" fill="#FE6D44"/>
<path d="M144.264 340.309L38.8108 276.713L228.357 249.896L144.264 340.309Z" fill="#FCFAF9" fill-opacity="0.25"/>
<path fill-rule="evenodd" clip-rule="evenodd" d="M219.795 248.396C220.514 249.078 220.549 250.22 219.874 250.946L216.84 254.207C216.165 254.933 215.035 254.969 214.316 254.287C213.597 253.605 213.562 252.463 214.237 251.737L217.27 248.476C217.946 247.75 219.076 247.714 219.795 248.396ZM46.6353 272.895C47.141 272.039 48.2375 271.76 49.0844 272.271L52.8882 274.565C53.7351 275.075 54.0117 276.183 53.506 277.038C53.0004 277.894 51.9039 278.173 51.057 277.662L47.2532 275.368C46.4063 274.857 46.1297 273.75 46.6353 272.895ZM210.228 258.682C210.947 259.364 210.982 260.506 210.307 261.232L204.24 267.754C203.565 268.48 202.435 268.516 201.716 267.834C200.997 267.152 200.962 266.01 201.637 265.284L207.704 258.762C208.379 258.035 209.509 258 210.228 258.682ZM58.632 280.13C59.1377 279.274 60.2342 278.995 61.0811 279.506L68.6887 284.094C69.5356 284.604 69.8122 285.712 69.3065 286.567C68.8008 287.422 67.7044 287.702 66.8575 287.191L59.2498 282.603C58.4029 282.092 58.1263 280.985 58.632 280.13ZM197.628 272.229C198.347 272.911 198.382 274.053 197.707 274.779L191.64 281.301C190.965 282.027 189.835 282.063 189.116 281.381C188.397 280.699 188.362 279.557 189.037 278.831L195.104 272.309C195.779 271.582 196.909 271.547 197.628 272.229ZM74.4325 289.658C74.9382 288.803 76.0347 288.524 76.8816 289.034L84.4892 293.622C85.3361 294.133 85.6127 295.241 85.107 296.096C84.6013 296.951 83.5049 297.231 82.658 296.72L75.0503 292.132C74.2034 291.621 73.9268 290.514 74.4325 289.658ZM185.028 285.776C185.747 286.458 185.782 287.6 185.107 288.326L179.04 294.848C178.365 295.574 177.235 295.61 176.516 294.928C175.797 294.246 175.761 293.104 176.437 292.378L182.504 285.855C183.179 285.129 184.309 285.094 185.028 285.776ZM90.233 299.187C90.7387 298.332 91.8352 298.053 92.682 298.563L100.29 303.151C101.137 303.662 101.413 304.769 100.908 305.625C100.402 306.48 99.3053 306.76 98.4584 306.249L90.8508 301.661C90.0039 301.15 89.7273 300.043 90.233 299.187ZM172.428 299.323C173.147 300.005 173.182 301.146 172.507 301.873L166.44 308.395C165.765 309.121 164.635 309.157 163.916 308.475C163.197 307.793 163.161 306.651 163.837 305.925L169.903 299.402C170.579 298.676 171.709 298.641 172.428 299.323ZM106.033 308.716C106.539 307.861 107.636 307.581 108.483 308.092L116.09 312.68C116.937 313.191 117.214 314.298 116.708 315.154C116.202 316.009 115.106 316.288 114.259 315.778L106.651 311.19C105.804 310.679 105.528 309.572 106.033 308.716ZM159.828 312.87C160.547 313.552 160.582 314.693 159.907 315.42L153.84 321.942C153.165 322.668 152.035 322.704 151.316 322.022C150.597 321.34 150.561 320.198 151.237 319.472L157.303 312.949C157.979 312.223 159.109 312.188 159.828 312.87ZM121.834 318.245C122.34 317.39 123.436 317.11 124.283 317.621L131.891 322.209C132.738 322.72 133.014 323.827 132.508 324.683C132.003 325.538 130.906 325.817 130.059 325.307L122.452 320.719C121.605 320.208 121.328 319.1 121.834 318.245ZM137.634 327.774C138.14 326.919 139.237 326.639 140.084 327.15L142.654 328.7L144.703 326.496C145.379 325.77 146.509 325.735 147.228 326.417C147.947 327.099 147.982 328.24 147.307 328.966L144.273 332.228C143.699 332.845 142.776 332.976 142.056 332.542L138.252 330.248C137.405 329.737 137.129 328.629 137.634 327.774Z" fill="#1B1F21"/>
<ellipse cx="21.7825" cy="21.9919" rx="21.7825" ry="21.9919" transform="matrix(0.99014 -0.140084 0.137376 0.990519 201.05 235.103)" fill="#57ACBC"/>
<path d="M234.241 257.192L234.826 261.412L220.448 263.446L219.863 259.226L224.378 258.587L223.196 250.066L218.681 250.705L218.24 247.526C219.467 247.278 220.808 246.762 222.263 245.979C223.714 245.178 224.961 244.322 226.002 243.411L227.858 243.148L229.891 257.807L234.241 257.192Z" fill="#FFFFFE"/>
<g opacity="0.62" filter="url(#filter0_f_1003_2444)">
<path d="M144.477 148.845L102 167.781L171.889 186.695L144.477 148.845Z" fill="#FE6D44"/>
<path fill-rule="evenodd" clip-rule="evenodd" d="M166.785 182.27L165.137 181.824C164.81 181.735 164.473 181.932 164.385 182.262C164.297 182.593 164.492 182.933 164.819 183.022L166.467 183.468C166.795 183.557 167.131 183.36 167.219 183.029C167.307 182.699 167.113 182.359 166.785 182.27ZM160.193 180.486L156.897 179.594C156.569 179.505 156.233 179.702 156.145 180.032C156.057 180.363 156.252 180.703 156.579 180.792L159.875 181.684C160.203 181.773 160.539 181.576 160.627 181.245C160.715 180.915 160.52 180.575 160.193 180.486ZM151.953 178.256L148.657 177.364C148.329 177.275 147.993 177.472 147.905 177.802C147.817 178.133 148.011 178.473 148.339 178.562L151.635 179.454C151.962 179.542 152.299 179.346 152.387 179.015C152.475 178.685 152.28 178.345 151.953 178.256ZM143.713 176.026L140.417 175.134C140.089 175.045 139.752 175.242 139.665 175.572C139.577 175.903 139.771 176.243 140.099 176.332L143.395 177.224C143.722 177.312 144.059 177.116 144.147 176.785C144.234 176.455 144.04 176.115 143.713 176.026ZM135.472 173.796L132.176 172.904C131.849 172.815 131.512 173.012 131.425 173.342C131.337 173.673 131.531 174.013 131.859 174.102L135.155 174.994C135.482 175.082 135.819 174.886 135.907 174.555C135.994 174.225 135.8 173.885 135.472 173.796ZM127.232 171.566L123.936 170.674C123.609 170.585 123.272 170.782 123.184 171.112C123.097 171.443 123.291 171.783 123.618 171.872L126.915 172.764C127.242 172.852 127.579 172.656 127.666 172.325C127.754 171.995 127.56 171.655 127.232 171.566ZM118.992 169.336L115.696 168.444C115.369 168.355 115.032 168.552 114.944 168.882C114.856 169.213 115.051 169.553 115.378 169.642L118.674 170.534C119.002 170.622 119.339 170.426 119.426 170.095C119.514 169.765 119.32 169.425 118.992 169.336ZM110.752 167.106L109.104 166.66C108.777 166.571 108.44 166.768 108.352 167.098C108.264 167.429 108.459 167.769 108.786 167.858L110.434 168.304C110.762 168.392 111.098 168.196 111.186 167.865C111.274 167.535 111.08 167.195 110.752 167.106Z" fill="#1B1F21"/>
<path d="M143.312 154.026L171.889 186.696L184.234 140.163L143.312 154.026Z" fill="#FE6D44"/>
<path d="M143.312 154.026L171.889 186.696L184.234 140.163L143.312 154.026Z" fill="#FCFAF9" fill-opacity="0.12"/>
<path fill-rule="evenodd" clip-rule="evenodd" d="M171.02 181.936C171.242 181.885 171.418 181.714 171.477 181.492L171.984 179.581C172.071 179.25 171.877 178.91 171.55 178.822C171.222 178.733 170.885 178.93 170.798 179.26L170.592 180.037L170.099 179.458C169.878 179.199 169.49 179.169 169.233 179.393C168.976 179.616 168.947 180.007 169.168 180.267L170.418 181.735C170.567 181.91 170.799 181.987 171.02 181.936ZM172.245 176.199C172.573 176.287 172.91 176.091 172.997 175.76L174.011 171.94C174.099 171.609 173.904 171.269 173.577 171.18C173.249 171.092 172.913 171.288 172.825 171.619L171.811 175.439C171.724 175.77 171.918 176.11 172.245 176.199ZM174.273 168.557C174.6 168.646 174.937 168.449 175.025 168.119L176.038 164.298C176.126 163.967 175.932 163.627 175.604 163.538C175.277 163.45 174.94 163.646 174.852 163.977L173.839 167.798C173.751 168.129 173.945 168.468 174.273 168.557ZM176.3 160.915C176.628 161.004 176.964 160.808 177.052 160.477L178.066 156.656C178.153 156.325 177.959 155.985 177.632 155.897C177.304 155.808 176.967 156.004 176.88 156.335L175.866 160.156C175.778 160.487 175.973 160.827 176.3 160.915ZM178.327 153.274C178.655 153.362 178.992 153.166 179.079 152.835L179.586 150.925C179.674 150.594 179.48 150.254 179.152 150.165C178.825 150.077 178.488 150.273 178.4 150.604L177.893 152.514C177.806 152.845 178 153.185 178.327 153.274ZM167.533 177.396C167.79 177.173 167.819 176.781 167.598 176.522L165.097 173.585C164.876 173.325 164.489 173.296 164.232 173.519C163.975 173.742 163.945 174.134 164.167 174.393L166.667 177.33C166.888 177.59 167.276 177.619 167.533 177.396ZM162.532 171.522C162.789 171.299 162.818 170.908 162.597 170.648L160.096 167.711C159.875 167.452 159.487 167.422 159.23 167.645C158.973 167.869 158.944 168.26 159.165 168.52L161.666 171.457C161.887 171.716 162.275 171.746 162.532 171.522ZM157.53 165.649C157.787 165.425 157.816 165.034 157.595 164.774L155.094 161.838C154.873 161.578 154.486 161.548 154.229 161.772C153.972 161.995 153.942 162.386 154.164 162.646L156.664 165.583C156.885 165.843 157.273 165.872 157.53 165.649ZM152.529 159.775C152.786 159.552 152.815 159.16 152.594 158.901L151.343 157.432C151.122 157.173 150.735 157.143 150.478 157.366C150.221 157.59 150.191 157.981 150.412 158.241L151.663 159.709C151.884 159.969 152.271 159.998 152.529 159.775Z" fill="black"/>
<path d="M142.922 153.919L102 167.781L114.345 121.248L142.922 153.919Z" fill="#FE6D44"/>
<path d="M142.922 153.919L102 167.781L114.345 121.248L142.922 153.919Z" fill="#FCFAF9" fill-opacity="0.12"/>
<path fill-rule="evenodd" clip-rule="evenodd" d="M115.522 125.961C115.849 126.049 116.044 126.389 115.957 126.72L115.469 128.569C115.382 128.9 115.046 129.096 114.718 129.008C114.39 128.92 114.195 128.58 114.283 128.25L114.77 126.401C114.858 126.07 115.194 125.873 115.522 125.961ZM114.059 131.508C114.386 131.596 114.581 131.936 114.494 132.267L113.518 135.964C113.431 136.295 113.095 136.492 112.767 136.404C112.439 136.316 112.245 135.976 112.332 135.645L113.307 131.947C113.395 131.616 113.731 131.42 114.059 131.508ZM112.108 138.904C112.435 138.992 112.63 139.331 112.543 139.662L111.567 143.36C111.48 143.691 111.144 143.888 110.816 143.8C110.489 143.711 110.294 143.372 110.381 143.041L111.356 139.343C111.444 139.012 111.78 138.815 112.108 138.904ZM110.157 146.299C110.485 146.387 110.679 146.727 110.592 147.058L109.617 150.756C109.529 151.087 109.193 151.283 108.865 151.195C108.538 151.107 108.343 150.767 108.43 150.437L109.406 146.739C109.493 146.408 109.829 146.211 110.157 146.299ZM108.206 153.695C108.534 153.783 108.729 154.123 108.641 154.454L107.666 158.151C107.579 158.482 107.242 158.679 106.915 158.591C106.587 158.503 106.392 158.163 106.479 157.832L107.455 154.134C107.542 153.803 107.878 153.607 108.206 153.695ZM106.255 161.091C106.583 161.179 106.778 161.518 106.69 161.849L106.501 162.566L107.216 162.313C107.536 162.2 107.887 162.37 107.999 162.693C108.111 163.017 107.942 163.37 107.622 163.484L105.812 164.124C105.598 164.2 105.359 164.15 105.192 163.993C105.025 163.837 104.958 163.601 105.016 163.379L105.504 161.53C105.591 161.199 105.928 161.002 106.255 161.091ZM110.459 161.823C110.347 161.5 110.516 161.146 110.836 161.033L114.456 159.752C114.775 159.639 115.126 159.809 115.238 160.132C115.35 160.456 115.181 160.809 114.861 160.923L111.242 162.203C110.922 162.316 110.572 162.146 110.459 161.823ZM117.699 159.262C117.587 158.939 117.755 158.585 118.075 158.472L121.695 157.191C122.015 157.078 122.365 157.248 122.477 157.571C122.589 157.895 122.421 158.248 122.101 158.362L118.481 159.642C118.161 159.755 117.811 159.585 117.699 159.262ZM124.938 156.701C124.826 156.378 124.994 156.024 125.314 155.911L128.934 154.63C129.254 154.517 129.604 154.687 129.716 155.01C129.828 155.334 129.66 155.687 129.34 155.801L125.72 157.081C125.4 157.194 125.05 157.024 124.938 156.701ZM132.177 154.14C132.065 153.817 132.233 153.463 132.553 153.35L134.363 152.71C134.683 152.596 135.034 152.767 135.146 153.09C135.258 153.413 135.089 153.767 134.769 153.88L132.959 154.52C132.639 154.633 132.289 154.463 132.177 154.14Z" fill="black"/>
<path d="M141.757 159.099L114.345 121.249L184.235 140.163L141.757 159.099Z" fill="#FE6D44"/>
<path d="M141.757 159.099L114.345 121.249L184.235 140.163L141.757 159.099Z" fill="#FCFAF9" fill-opacity="0.25"/>
<path fill-rule="evenodd" clip-rule="evenodd" d="M181.494 138.355C181.65 138.711 181.49 139.127 181.138 139.284L179.605 139.967C179.253 140.124 178.841 139.963 178.685 139.607C178.53 139.251 178.689 138.835 179.042 138.678L180.574 137.995C180.927 137.838 181.338 137.999 181.494 138.355ZM117.613 121.067C117.924 120.837 118.361 120.906 118.588 121.22L119.577 122.585C119.804 122.899 119.737 123.34 119.426 123.57C119.115 123.799 118.678 123.731 118.451 123.417L117.462 122.052C117.234 121.738 117.302 121.297 117.613 121.067ZM176.662 140.509C176.817 140.865 176.658 141.281 176.305 141.438L173.241 142.804C172.888 142.962 172.476 142.8 172.321 142.444C172.165 142.088 172.325 141.672 172.677 141.515L175.742 140.149C176.094 139.992 176.506 140.153 176.662 140.509ZM120.732 125.373C121.043 125.143 121.479 125.212 121.706 125.526L123.684 128.256C123.912 128.57 123.844 129.011 123.533 129.241C123.222 129.471 122.785 129.402 122.558 129.088L120.58 126.358C120.353 126.044 120.421 125.603 120.732 125.373ZM170.297 143.346C170.453 143.702 170.293 144.118 169.941 144.276L166.876 145.642C166.524 145.799 166.112 145.638 165.956 145.282C165.801 144.926 165.96 144.51 166.313 144.353L169.377 142.986C169.73 142.829 170.142 142.99 170.297 143.346ZM124.839 131.044C125.15 130.814 125.586 130.883 125.814 131.197L127.791 133.927C128.019 134.242 127.951 134.682 127.64 134.912C127.329 135.142 126.893 135.074 126.665 134.759L124.688 132.029C124.46 131.715 124.528 131.274 124.839 131.044ZM163.933 146.184C164.088 146.54 163.929 146.956 163.576 147.113L160.512 148.479C160.159 148.636 159.747 148.475 159.592 148.119C159.436 147.763 159.596 147.347 159.948 147.19L163.013 145.824C163.365 145.667 163.777 145.828 163.933 146.184ZM128.946 136.715C129.257 136.486 129.694 136.554 129.921 136.868L131.899 139.599C132.126 139.913 132.058 140.354 131.747 140.583C131.436 140.813 131 140.745 130.772 140.431L128.795 137.7C128.567 137.386 128.635 136.945 128.946 136.715ZM157.568 149.021C157.724 149.377 157.564 149.793 157.212 149.95L154.147 151.316C153.795 151.473 153.383 151.312 153.227 150.956C153.072 150.6 153.231 150.184 153.584 150.027L156.648 148.661C157.001 148.504 157.413 148.665 157.568 149.021ZM133.053 142.387C133.364 142.157 133.801 142.225 134.028 142.539L136.006 145.27C136.233 145.584 136.166 146.025 135.855 146.255C135.544 146.484 135.107 146.416 134.88 146.102L132.902 143.371C132.675 143.057 132.742 142.616 133.053 142.387ZM151.204 151.858C151.359 152.214 151.199 152.63 150.847 152.787L147.783 154.153C147.43 154.311 147.018 154.149 146.863 153.793C146.707 153.437 146.867 153.021 147.219 152.864L150.284 151.498C150.636 151.341 151.048 151.502 151.204 151.858ZM137.161 148.058C137.472 147.828 137.908 147.897 138.136 148.211L140.113 150.941C140.341 151.255 140.273 151.696 139.962 151.926C139.651 152.156 139.214 152.087 138.987 151.773L137.009 149.043C136.782 148.728 136.85 148.288 137.161 148.058ZM141.268 153.729C141.579 153.499 142.015 153.568 142.243 153.882L142.9 154.79L143.919 154.335C144.272 154.178 144.683 154.34 144.839 154.696C144.995 155.052 144.835 155.468 144.482 155.625L142.95 156.308C142.65 156.441 142.299 156.346 142.106 156.079L141.117 154.714C140.889 154.4 140.957 153.959 141.268 153.729Z" fill="#1B1F21"/>
</g>
</g>
<defs>
<filter id="filter0_f_1003_2444" x="94.0001" y="112.931" width="98.2345" height="81.7651" filterUnits="userSpaceOnUse" color-interpolation-filters="sRGB">
<feFlood flood-opacity="0" result="BackgroundImageFix"/>
<feBlend mode="normal" in="SourceGraphic" in2="BackgroundImageFix" result="shape"/>
<feGaussianBlur stdDeviation="4" result="effect1_foregroundBlur_1003_2444"/>
</filter>
</defs>
</svg>
